<svg width="291" height="40" viewBox="0 0 291 40" fill="none" xmlns="http://www.w3.org/2000/svg">
<g filter="url(#filter0_d)">
<path d="M23.76 24.48C24.4267 24.7733 24.76 25.2667 24.76 25.96C24.76 26.4933 24.5733 26.9333 24.2 27.28C23.8533 27.6 23.4133 27.76 22.88 27.76C22.5067 27.76 22.1733 27.6933 21.88 27.56L7.04 21.24C6.48 21 6.04 20.6533 5.72 20.2C5.4 19.72 5.24 19.1733 5.24 18.56C5.24 17.9733 5.4 17.44 5.72 16.96C6.04 16.48 6.48 16.1333 7.04 15.92L21.88 9.56C22.2267 9.42667 22.56 9.36 22.88 9.36C23.4133 9.36 23.8533 9.53333 24.2 9.88C24.5733 10.2 24.76 10.6267 24.76 11.16C24.76 11.8533 24.4267 12.3467 23.76 12.64L9.64 18.56L23.76 24.48ZM283.312 15.92C283.872 16.1333 284.312 16.48 284.632 16.96C284.952 17.44 285.112 17.9733 285.112 18.56C285.112 19.1733 284.952 19.72 284.632 20.2C284.312 20.6533 283.872 21 283.312 21.24L268.472 27.56C268.178 27.6933 267.845 27.76 267.472 27.76C266.938 27.76 266.485 27.6 266.112 27.28C265.765 26.9333 265.592 26.4933 265.592 25.96C265.592 25.2667 265.925 24.7733 266.592 24.48L280.712 18.56L266.592 12.64C265.925 12.3467 265.592 11.8533 265.592 11.16C265.592 10.6267 265.765 10.2 266.112 9.88C266.485 9.53333 266.938 9.36 267.472 9.36C267.792 9.36 268.125 9.42667 268.472 9.56L283.312 15.92Z" fill="white"/>
<path d="M29.5044 30.24C27.451 30.32 26.4244 29.6133 26.4244 28.12C26.4244 27.48 26.5977 27 26.9444 26.68C27.2644 26.3333 27.7844 26.1333 28.5044 26.08L29.7844 26C30.8777 25.9467 31.7044 25.6 32.2644 24.96C32.8244 24.32 33.1044 23.3467 33.1044 22.04V4.16C33.1044 3.38667 33.331 2.77333 33.7844 2.32C34.2644 1.84 34.891 1.6 35.6644 1.6C36.4644 1.6 37.091 1.84 37.5444 2.32C38.0244 2.77333 38.2644 3.38667 38.2644 4.16V22.04C38.2644 27.08 35.771 29.7867 30.7844 30.16L29.5044 30.24ZM52.8403 30.32C50.8403 30.32 49.0803 29.9067 47.5603 29.08C46.067 28.2533 44.907 27.0667 44.0803 25.52C43.2536 23.9733 42.8403 22.1733 42.8403 20.12C42.8403 18.0667 43.2536 16.28 44.0803 14.76C44.907 13.2133 46.067 12.0267 47.5603 11.2C49.0803 10.3733 50.8403 9.96 52.8403 9.96C54.8403 9.96 56.587 10.3733 58.0803 11.2C59.6003 12.0267 60.7603 13.2133 61.5603 14.76C62.387 16.28 62.8003 18.0667 62.8003 20.12C62.8003 22.1733 62.387 23.9733 61.5603 25.52C60.7603 27.0667 59.6003 28.2533 58.0803 29.08C56.587 29.9067 54.8403 30.32 52.8403 30.32ZM52.8003 26.44C54.427 26.44 55.667 25.9067 56.5203 24.84C57.3736 23.7733 57.8003 22.2 57.8003 20.12C57.8003 18.0667 57.3736 16.5067 56.5203 15.44C55.667 14.3467 54.4403 13.8 52.8403 13.8C51.2403 13.8 50.0003 14.3467 49.1203 15.44C48.267 16.5067 47.8403 18.0667 47.8403 20.12C47.8403 22.2 48.267 23.7733 49.1203 24.84C49.9736 25.9067 51.2003 26.44 52.8003 26.44ZM75.6081 30.32C73.6615 30.32 71.9415 29.9067 70.4481 29.08C68.9815 28.2533 67.8481 27.08 67.0481 25.56C66.2481 24.04 65.8481 22.2667 65.8481 20.24C65.8481 18.2133 66.2615 16.4267 67.0881 14.88C67.9415 13.3067 69.1281 12.0933 70.6481 11.24C72.1681 10.3867 73.9148 9.96 75.8881 9.96C76.9281 9.96 77.9681 10.1067 79.0081 10.4C80.0748 10.6933 81.0081 11.0933 81.8081 11.6C82.6615 12.16 83.0881 12.8667 83.0881 13.72C83.0881 14.3067 82.9415 14.7867 82.6481 15.16C82.3815 15.5067 82.0215 15.68 81.5681 15.68C81.2748 15.68 80.9681 15.6133 80.6481 15.48C80.3281 15.3467 80.0081 15.1867 79.6881 15C79.1015 14.6533 78.5415 14.3867 78.0081 14.2C77.4748 13.9867 76.8615 13.88 76.1681 13.88C74.5148 13.88 73.2348 14.4267 72.3281 15.52C71.4481 16.5867 71.0081 18.1333 71.0081 20.16C71.0081 22.16 71.4481 23.7067 72.3281 24.8C73.2348 25.8667 74.5148 26.4 76.1681 26.4C76.8348 26.4 77.4215 26.3067 77.9281 26.12C78.4615 25.9067 79.0481 25.6267 79.6881 25.28C80.0881 25.04 80.4348 24.8667 80.7281 24.76C81.0215 24.6267 81.3148 24.56 81.6081 24.56C82.0348 24.56 82.3948 24.7467 82.6881 25.12C82.9815 25.4933 83.1281 25.96 83.1281 26.52C83.1281 26.9733 83.0215 27.3733 82.8081 27.72C82.6215 28.04 82.3015 28.3333 81.8481 28.6C81.0215 29.1333 80.0615 29.56 78.9681 29.88C77.8748 30.1733 76.7548 30.32 75.6081 30.32ZM94.9394 9.96C97.6594 9.96 99.6727 10.64 100.979 12C102.313 13.3333 102.979 15.3733 102.979 18.12V27.88C102.979 28.6 102.766 29.1733 102.339 29.6C101.913 30 101.326 30.2 100.579 30.2C99.886 30.2 99.3127 29.9867 98.8594 29.56C98.4327 29.1333 98.2194 28.5733 98.2194 27.88V27C97.766 28.04 97.046 28.8533 96.0594 29.44C95.0994 30.0267 93.9794 30.32 92.6994 30.32C91.3927 30.32 90.206 30.0533 89.1394 29.52C88.0727 28.9867 87.2327 28.2533 86.6194 27.32C86.006 26.3867 85.6994 25.3467 85.6994 24.2C85.6994 22.76 86.0594 21.6267 86.7794 20.8C87.526 19.9733 88.726 19.3733 90.3794 19C92.0327 18.6267 94.3127 18.44 97.2194 18.44H98.2194V17.52C98.2194 16.2133 97.9394 15.2667 97.3794 14.68C96.8194 14.0667 95.9127 13.76 94.6594 13.76C93.886 13.76 93.0994 13.88 92.2994 14.12C91.4994 14.3333 90.5527 14.6533 89.4594 15.08C88.766 15.4267 88.2594 15.6 87.9394 15.6C87.4594 15.6 87.0594 15.4267 86.7394 15.08C86.446 14.7333 86.2994 14.28 86.2994 13.72C86.2994 13.2667 86.406 12.88 86.6194 12.56C86.8594 12.2133 87.246 11.8933 87.7794 11.6C88.7127 11.0933 89.8194 10.6933 91.0994 10.4C92.406 10.1067 93.686 9.96 94.9394 9.96ZM93.6994 26.72C95.0327 26.72 96.1127 26.28 96.9394 25.4C97.7927 24.4933 98.2194 23.3333 98.2194 21.92V21.08H97.4994C95.7127 21.08 94.326 21.16 93.3394 21.32C92.3527 21.48 91.646 21.76 91.2194 22.16C90.7927 22.56 90.5794 23.1067 90.5794 23.8C90.5794 24.6533 90.8727 25.36 91.4594 25.92C92.0727 26.4533 92.8194 26.72 93.6994 26.72ZM118.981 10.04C119.674 9.98667 120.221 10.1333 120.621 10.48C121.021 10.8267 121.221 11.3467 121.221 12.04C121.221 12.76 121.048 13.2933 120.701 13.64C120.354 13.9867 119.728 14.2133 118.821 14.32L117.621 14.44C116.048 14.6 114.888 15.1333 114.141 16.04C113.421 16.9467 113.061 18.08 113.061 19.44V27.84C113.061 28.6133 112.821 29.2133 112.341 29.64C111.861 30.04 111.261 30.24 110.541 30.24C109.821 30.24 109.221 30.04 108.741 29.64C108.288 29.2133 108.061 28.6133 108.061 27.84V12.36C108.061 11.6133 108.288 11.04 108.741 10.64C109.221 10.24 109.808 10.04 110.501 10.04C111.194 10.04 111.754 10.24 112.181 10.64C112.608 11.0133 112.821 11.56 112.821 12.28V13.88C113.328 12.7067 114.074 11.8 115.061 11.16C116.074 10.52 117.194 10.16 118.421 10.08L118.981 10.04Z" fill="#ECECEC"/>
<path d="M142.913 30.32C140.966 30.32 139.246 29.9067 137.753 29.08C136.286 28.2533 135.153 27.08 134.353 25.56C133.553 24.04 133.153 22.2667 133.153 20.24C133.153 18.2133 133.566 16.4267 134.393 14.88C135.246 13.3067 136.433 12.0933 137.953 11.24C139.473 10.3867 141.219 9.96 143.193 9.96C144.233 9.96 145.273 10.1067 146.313 10.4C147.379 10.6933 148.313 11.0933 149.113 11.6C149.966 12.16 150.393 12.8667 150.393 13.72C150.393 14.3067 150.246 14.7867 149.953 15.16C149.686 15.5067 149.326 15.68 148.873 15.68C148.579 15.68 148.273 15.6133 147.953 15.48C147.633 15.3467 147.313 15.1867 146.993 15C146.406 14.6533 145.846 14.3867 145.313 14.2C144.779 13.9867 144.166 13.88 143.473 13.88C141.819 13.88 140.539 14.4267 139.633 15.52C138.753 16.5867 138.313 18.1333 138.313 20.16C138.313 22.16 138.753 23.7067 139.633 24.8C140.539 25.8667 141.819 26.4 143.473 26.4C144.139 26.4 144.726 26.3067 145.233 26.12C145.766 25.9067 146.353 25.6267 146.993 25.28C147.393 25.04 147.739 24.8667 148.033 24.76C148.326 24.6267 148.619 24.56 148.913 24.56C149.339 24.56 149.699 24.7467 149.993 25.12C150.286 25.4933 150.433 25.96 150.433 26.52C150.433 26.9733 150.326 27.3733 150.113 27.72C149.926 28.04 149.606 28.3333 149.153 28.6C148.326 29.1333 147.366 29.56 146.273 29.88C145.179 30.1733 144.059 30.32 142.913 30.32ZM156.244 30.24C155.524 30.24 154.924 30.04 154.444 29.64C153.991 29.2133 153.764 28.6133 153.764 27.84V3.96C153.764 3.18667 153.991 2.6 154.444 2.2C154.924 1.8 155.524 1.6 156.244 1.6C156.964 1.6 157.564 1.8 158.044 2.2C158.524 2.6 158.764 3.18667 158.764 3.96V27.84C158.764 28.6133 158.524 29.2133 158.044 29.64C157.564 30.04 156.964 30.24 156.244 30.24ZM172.4 9.96C175.12 9.96 177.134 10.64 178.44 12C179.774 13.3333 180.44 15.3733 180.44 18.12V27.88C180.44 28.6 180.227 29.1733 179.8 29.6C179.374 30 178.787 30.2 178.04 30.2C177.347 30.2 176.774 29.9867 176.32 29.56C175.894 29.1333 175.68 28.5733 175.68 27.88V27C175.227 28.04 174.507 28.8533 173.52 29.44C172.56 30.0267 171.44 30.32 170.16 30.32C168.854 30.32 167.667 30.0533 166.6 29.52C165.534 28.9867 164.694 28.2533 164.08 27.32C163.467 26.3867 163.16 25.3467 163.16 24.2C163.16 22.76 163.52 21.6267 164.24 20.8C164.987 19.9733 166.187 19.3733 167.84 19C169.494 18.6267 171.774 18.44 174.68 18.44H175.68V17.52C175.68 16.2133 175.4 15.2667 174.84 14.68C174.28 14.0667 173.374 13.76 172.12 13.76C171.347 13.76 170.56 13.88 169.76 14.12C168.96 14.3333 168.014 14.6533 166.92 15.08C166.227 15.4267 165.72 15.6 165.4 15.6C164.92 15.6 164.52 15.4267 164.2 15.08C163.907 14.7333 163.76 14.28 163.76 13.72C163.76 13.2667 163.867 12.88 164.08 12.56C164.32 12.2133 164.707 11.8933 165.24 11.6C166.174 11.0933 167.28 10.6933 168.56 10.4C169.867 10.1067 171.147 9.96 172.4 9.96ZM171.16 26.72C172.494 26.72 173.574 26.28 174.4 25.4C175.254 24.4933 175.68 23.3333 175.68 21.92V21.08H174.96C173.174 21.08 171.787 21.16 170.8 21.32C169.814 21.48 169.107 21.76 168.68 22.16C168.254 22.56 168.04 23.1067 168.04 23.8C168.04 24.6533 168.334 25.36 168.92 25.92C169.534 26.4533 170.28 26.72 171.16 26.72ZM192.602 30.32C189.695 30.32 187.349 29.7467 185.562 28.6C184.709 28.0933 184.282 27.3733 184.282 26.44C184.282 25.9067 184.429 25.48 184.722 25.16C185.015 24.8133 185.375 24.64 185.802 24.64C186.255 24.64 186.882 24.8533 187.682 25.28C188.535 25.68 189.309 25.9867 190.002 26.2C190.722 26.4133 191.629 26.52 192.722 26.52C193.842 26.52 194.709 26.3333 195.322 25.96C195.962 25.5867 196.282 25.0667 196.282 24.4C196.282 23.9467 196.149 23.5867 195.882 23.32C195.642 23.0533 195.189 22.8133 194.522 22.6C193.882 22.36 192.895 22.0933 191.562 21.8C189.189 21.32 187.482 20.64 186.442 19.76C185.429 18.88 184.922 17.6667 184.922 16.12C184.922 14.9467 185.269 13.8933 185.962 12.96C186.655 12 187.602 11.2667 188.802 10.76C190.029 10.2267 191.415 9.96 192.962 9.96C194.082 9.96 195.162 10.1067 196.202 10.4C197.242 10.6667 198.175 11.0667 199.002 11.6C199.855 12.1333 200.282 12.84 200.282 13.72C200.282 14.2533 200.135 14.7067 199.842 15.08C199.549 15.4267 199.189 15.6 198.762 15.6C198.469 15.6 198.175 15.5467 197.882 15.44C197.615 15.3067 197.269 15.12 196.842 14.88C196.069 14.48 195.402 14.1867 194.842 14C194.282 13.7867 193.589 13.68 192.762 13.68C191.775 13.68 190.989 13.88 190.402 14.28C189.842 14.68 189.562 15.2267 189.562 15.92C189.562 16.5867 189.855 17.0933 190.442 17.44C191.029 17.7867 192.162 18.1333 193.842 18.48C195.629 18.8533 197.029 19.28 198.042 19.76C199.055 20.24 199.775 20.84 200.202 21.56C200.655 22.28 200.882 23.2 200.882 24.32C200.882 26.1333 200.122 27.5867 198.602 28.68C197.109 29.7733 195.109 30.32 192.602 30.32ZM212.016 30.32C209.109 30.32 206.763 29.7467 204.976 28.6C204.123 28.0933 203.696 27.3733 203.696 26.44C203.696 25.9067 203.843 25.48 204.136 25.16C204.429 24.8133 204.789 24.64 205.216 24.64C205.669 24.64 206.296 24.8533 207.096 25.28C207.949 25.68 208.723 25.9867 209.416 26.2C210.136 26.4133 211.043 26.52 212.136 26.52C213.256 26.52 214.123 26.3333 214.736 25.96C215.376 25.5867 215.696 25.0667 215.696 24.4C215.696 23.9467 215.563 23.5867 215.296 23.32C215.056 23.0533 214.603 22.8133 213.936 22.6C213.296 22.36 212.309 22.0933 210.976 21.8C208.603 21.32 206.896 20.64 205.856 19.76C204.843 18.88 204.336 17.6667 204.336 16.12C204.336 14.9467 204.683 13.8933 205.376 12.96C206.069 12 207.016 11.2667 208.216 10.76C209.443 10.2267 210.829 9.96 212.376 9.96C213.496 9.96 214.576 10.1067 215.616 10.4C216.656 10.6667 217.589 11.0667 218.416 11.6C219.269 12.1333 219.696 12.84 219.696 13.72C219.696 14.2533 219.549 14.7067 219.256 15.08C218.963 15.4267 218.603 15.6 218.176 15.6C217.883 15.6 217.589 15.5467 217.296 15.44C217.029 15.3067 216.683 15.12 216.256 14.88C215.483 14.48 214.816 14.1867 214.256 14C213.696 13.7867 213.003 13.68 212.176 13.68C211.189 13.68 210.403 13.88 209.816 14.28C209.256 14.68 208.976 15.2267 208.976 15.92C208.976 16.5867 209.269 17.0933 209.856 17.44C210.443 17.7867 211.576 18.1333 213.256 18.48C215.043 18.8533 216.443 19.28 217.456 19.76C218.469 20.24 219.189 20.84 219.616 21.56C220.069 22.28 220.296 23.2 220.296 24.32C220.296 26.1333 219.536 27.5867 218.016 28.68C216.523 29.7733 214.523 30.32 212.016 30.32ZM225.99 16.32C225.483 16.32 225.057 16.16 224.71 15.84C224.39 15.4933 224.23 15.0667 224.23 14.56C224.23 14.0533 224.39 13.64 224.71 13.32C225.057 12.9733 225.483 12.8 225.99 12.8H241.99C242.497 12.8 242.91 12.9733 243.23 13.32C243.577 13.6667 243.75 14.0933 243.75 14.6C243.75 15.08 243.577 15.4933 243.23 15.84C242.91 16.16 242.497 16.32 241.99 16.32H225.99ZM225.99 24.32C225.483 24.32 225.057 24.16 224.71 23.84C224.39 23.4933 224.23 23.0667 224.23 22.56C224.23 22.0533 224.39 21.64 224.71 21.32C225.057 20.9733 225.483 20.8 225.99 20.8H241.99C242.497 20.8 242.91 20.9733 243.23 21.32C243.577 21.6667 243.75 22.0933 243.75 22.6C243.75 23.08 243.577 23.4933 243.23 23.84C242.91 24.16 242.497 24.32 241.99 24.32H225.99ZM250.614 1.6C251.521 1.6 252.254 1.93333 252.814 2.6C253.374 3.26667 253.654 4.24 253.654 5.52C253.654 8.02667 252.774 10.2267 251.014 12.12C250.694 12.4667 250.321 12.64 249.894 12.64C249.521 12.64 249.174 12.5067 248.854 12.24C248.561 11.9467 248.414 11.6133 248.414 11.24C248.414 10.92 248.548 10.6133 248.814 10.32C249.614 9.46667 250.134 8.50667 250.374 7.44C249.601 7.36 248.961 7.06667 248.454 6.56C247.974 6.02667 247.734 5.37333 247.734 4.6C247.734 3.74666 248.001 3.04 248.534 2.48C249.094 1.89333 249.788 1.6 250.614 1.6ZM258.294 1.6C259.201 1.6 259.934 1.93333 260.494 2.6C261.054 3.26667 261.334 4.24 261.334 5.52C261.334 8.02667 260.454 10.2267 258.694 12.12C258.374 12.4667 258.001 12.64 257.574 12.64C257.201 12.64 256.854 12.5067 256.534 12.24C256.241 11.9467 256.094 11.6133 256.094 11.24C256.094 10.92 256.228 10.6133 256.494 10.32C257.294 9.46667 257.814 8.50667 258.054 7.44C257.281 7.36 256.641 7.06667 256.134 6.56C255.654 6.02667 255.414 5.37333 255.414 4.6C255.414 3.74666 255.681 3.04 256.214 2.48C256.774 1.89333 257.468 1.6 258.294 1.6Z" fill="#979797" fill-opacity="0.3"/>
<path d="M23.76 24.48L24.1627 23.5647L24.1547 23.5612L24.1467 23.5578L23.76 24.48ZM24.2 27.28L24.8783 28.0148L24.8805 28.0128L24.2 27.28ZM21.88 27.56L22.2938 26.6496L22.2829 26.6447L22.2718 26.64L21.88 27.56ZM7.04 21.24L6.64608 22.1591L6.64818 22.16L7.04 21.24ZM5.72 20.2L4.88795 20.7547L4.89534 20.7658L4.90303 20.7767L5.72 20.2ZM5.72 16.96L6.55205 17.5147L6.55205 17.5147L5.72 16.96ZM7.04 15.92L7.396 16.8545L7.41511 16.8472L7.43392 16.8391L7.04 15.92ZM21.88 9.56L21.521 8.62665L21.5034 8.63342L21.4861 8.64085L21.88 9.56ZM24.2 9.88L23.4929 10.5871L23.5201 10.6143L23.5492 10.6393L24.2 9.88ZM23.76 12.64L24.1467 13.5622L24.1547 13.5588L24.1627 13.5553L23.76 12.64ZM9.64 18.56L9.25335 17.6378L7.05372 18.56L9.25335 19.4822L9.64 18.56ZM23.3573 25.3953C23.5566 25.483 23.6417 25.5711 23.6814 25.6299C23.7189 25.6853 23.76 25.7792 23.76 25.96H25.76C25.76 25.4475 25.6344 24.948 25.3386 24.5101C25.0449 24.0755 24.63 23.7703 24.1627 23.5647L23.3573 25.3953ZM23.76 25.96C23.76 26.2299 23.6786 26.3995 23.5196 26.5472L24.8805 28.0128C25.4681 27.4671 25.76 26.7567 25.76 25.96H23.76ZM23.5217 26.5452C23.3842 26.6722 23.1973 26.76 22.88 26.76V28.76C23.6294 28.76 24.3225 28.5278 24.8783 28.0148L23.5217 26.5452ZM22.88 26.76C22.6269 26.76 22.4381 26.7152 22.2938 26.6496L21.4662 28.4704C21.9085 28.6714 22.3864 28.76 22.88 28.76V26.76ZM22.2718 26.64L7.43182 20.32L6.64818 22.16L21.4882 28.48L22.2718 26.64ZM7.43392 20.3209C7.02668 20.1463 6.74002 19.911 6.53697 19.6233L4.90303 20.7767C5.33998 21.3957 5.93333 21.8537 6.64608 22.1591L7.43392 20.3209ZM6.55205 19.6453C6.34862 19.3401 6.24 18.989 6.24 18.56H4.24C4.24 19.3576 4.45138 20.0999 4.88795 20.7547L6.55205 19.6453ZM6.24 18.56C6.24 18.1672 6.34352 17.8275 6.55205 17.5147L4.88795 16.4053C4.45648 17.0525 4.24 17.7795 4.24 18.56H6.24ZM6.55205 17.5147C6.75203 17.2147 7.02228 16.9969 7.396 16.8545L6.684 14.9855C5.93772 15.2698 5.32797 15.7453 4.88795 16.4053L6.55205 17.5147ZM7.43392 16.8391L22.2739 10.4791L21.4861 8.64085L6.64608 15.0009L7.43392 16.8391ZM22.239 10.4933C22.4892 10.3971 22.7008 10.36 22.88 10.36V8.36C22.4192 8.36 21.9641 8.45623 21.521 8.62665L22.239 10.4933ZM22.88 10.36C23.1738 10.36 23.3512 10.4454 23.4929 10.5871L24.9071 9.17289C24.3555 8.62128 23.6529 8.36 22.88 8.36V10.36ZM23.5492 10.6393C23.6805 10.7518 23.76 10.8906 23.76 11.16H25.76C25.76 10.3627 25.4662 9.6482 24.8508 9.12074L23.5492 10.6393ZM23.76 11.16C23.76 11.3408 23.7189 11.4347 23.6814 11.4901C23.6417 11.5489 23.5566 11.637 23.3573 11.7247L24.1627 13.5553C24.63 13.3497 25.0449 13.0445 25.3386 12.6099C25.6344 12.172 25.76 11.6725 25.76 11.16H23.76ZM23.3733 11.7178L9.25335 17.6378L10.0267 19.4822L24.1467 13.5622L23.3733 11.7178ZM9.25335 19.4822L23.3733 25.4022L24.1467 23.5578L10.0267 17.6378L9.25335 19.4822ZM29.5044 30.24L29.5433 31.2392L29.555 31.2388L29.5668 31.2381L29.5044 30.24ZM26.9444 26.68L27.6227 27.4148L27.652 27.3877L27.6792 27.3583L26.9444 26.68ZM28.5044 26.08L28.442 25.0819L28.4305 25.0827L28.5044 26.08ZM29.7844 26L29.7356 25.0011L29.722 25.0019L29.7844 26ZM32.2644 24.96L31.5118 24.3015L31.5118 24.3015L32.2644 24.96ZM33.7844 2.32L33.0773 1.61289L33.0773 1.61289L33.7844 2.32ZM37.5444 2.32L36.8174 3.00662L36.837 3.02739L36.8578 3.04701L37.5444 2.32ZM30.7844 30.16L30.8468 31.1581L30.859 31.1572L30.7844 30.16ZM29.4654 29.2408C28.5266 29.2773 28.0145 29.1205 27.7614 28.9463C27.5752 28.8181 27.4244 28.6121 27.4244 28.12H25.4244C25.4244 29.1213 25.7869 30.0152 26.6274 30.5937C27.4009 31.1261 28.4289 31.2827 29.5433 31.2392L29.4654 29.2408ZM27.4244 28.12C27.4244 27.6556 27.5464 27.4852 27.6227 27.4148L26.2661 25.9452C25.649 26.5148 25.4244 27.3044 25.4244 28.12H27.4244ZM27.6792 27.3583C27.7555 27.2756 27.9809 27.1215 28.5782 27.0773L28.4305 25.0827C27.5878 25.1452 26.7732 25.3911 26.2096 26.0017L27.6792 27.3583ZM28.5668 27.0781L29.8468 26.9981L29.722 25.0019L28.442 25.0819L28.5668 27.0781ZM29.8331 26.9988C31.1156 26.9362 32.2306 26.5172 33.017 25.6185L31.5118 24.3015C31.1781 24.6828 30.6398 24.9571 29.7357 25.0012L29.8331 26.9988ZM33.017 25.6185C33.8029 24.7203 34.1044 23.4641 34.1044 22.04H32.1044C32.1044 23.2292 31.8458 23.9197 31.5118 24.3015L33.017 25.6185ZM34.1044 22.04V4.16H32.1044V22.04H34.1044ZM34.1044 4.16C34.1044 3.59343 34.2633 3.25526 34.4915 3.0271L33.0773 1.61289C32.3988 2.2914 32.1044 3.1799 32.1044 4.16H34.1044ZM34.4915 3.02711C34.7573 2.76125 35.1161 2.6 35.6644 2.6V0.599998C34.666 0.599998 33.7714 0.91875 33.0773 1.61289L34.4915 3.02711ZM35.6644 2.6C36.252 2.6 36.5921 2.76808 36.8174 3.00662L38.2714 1.63338C37.59 0.911922 36.6768 0.599998 35.6644 0.599998V2.6ZM36.8578 3.04701C37.1033 3.27889 37.2644 3.6105 37.2644 4.16H39.2644C39.2644 3.16283 38.9455 2.26778 38.231 1.59299L36.8578 3.04701ZM37.2644 4.16V22.04H39.2644V4.16H37.2644ZM37.2644 22.04C37.2644 24.4027 36.6811 26.0628 35.6589 27.1725C34.6378 28.281 33.0424 28.9882 30.7097 29.1628L30.859 31.1572C33.513 30.9585 35.6576 30.1257 37.1299 28.5275C38.601 26.9306 39.2644 24.7173 39.2644 22.04H37.2644ZM30.722 29.1619L29.442 29.2419L29.5668 31.2381L30.8468 31.1581L30.722 29.1619ZM47.5603 29.08L47.076 29.9549L47.0825 29.9585L47.5603 29.08ZM44.0803 25.52L44.9622 25.0486L44.9622 25.0486L44.0803 25.52ZM44.0803 14.76L44.9588 15.2378L44.9622 15.2314L44.0803 14.76ZM47.5603 11.2L47.0825 10.3215L47.076 10.3251L47.5603 11.2ZM58.0803 11.2L57.596 12.0749L57.6025 12.0785L58.0803 11.2ZM61.5603 14.76L60.6721 15.2194L60.6769 15.2286L60.6818 15.2378L61.5603 14.76ZM61.5603 25.52L60.6783 25.0486L60.6721 25.0606L61.5603 25.52ZM58.0803 29.08L57.6025 28.2015L57.596 28.2051L58.0803 29.08ZM56.5203 15.44L55.7319 16.0553L55.7394 16.0647L56.5203 15.44ZM49.1203 15.44L48.3413 14.813L48.3394 14.8153L49.1203 15.44ZM52.8403 29.32C50.981 29.32 49.39 28.9368 48.0381 28.2015L47.0825 29.9585C48.7706 30.8765 50.6996 31.32 52.8403 31.32V29.32ZM48.0446 28.2051C46.7248 27.4745 45.7007 26.4302 44.9622 25.0486L43.1984 25.9914C44.1133 27.7031 45.4092 29.0322 47.076 29.9549L48.0446 28.2051ZM44.9622 25.0486C44.2254 23.6699 43.8403 22.037 43.8403 20.12H41.8403C41.8403 22.3096 42.2819 24.2767 43.1984 25.9914L44.9622 25.0486ZM43.8403 20.12C43.8403 18.2024 44.2255 16.586 44.9588 15.2378L43.2018 14.2822C42.2818 15.974 41.8403 17.9309 41.8403 20.12H43.8403ZM44.9622 15.2314C45.7007 13.8498 46.7248 12.8055 48.0446 12.0749L47.076 10.3251C45.4092 11.2478 44.1133 12.5769 43.1984 14.2886L44.9622 15.2314ZM48.0381 12.0785C49.39 11.3432 50.981 10.96 52.8403 10.96V8.96C50.6996 8.96 48.7706 9.40346 47.0825 10.3215L48.0381 12.0785ZM52.8403 10.96C54.7001 10.96 56.2745 11.3434 57.596 12.0749L58.5646 10.3251C56.8994 9.4033 54.9805 8.96 52.8403 8.96V10.96ZM57.6025 12.0785C58.9457 12.809 59.9633 13.8491 60.6721 15.2194L62.4485 14.3006C61.5573 12.5775 60.2549 11.2444 58.5581 10.3215L57.6025 12.0785ZM60.6818 15.2378C61.4151 16.586 61.8003 18.2024 61.8003 20.12H63.8003C63.8003 17.9309 63.3589 15.974 62.4388 14.2822L60.6818 15.2378ZM61.8003 20.12C61.8003 22.037 61.4153 23.6699 60.6784 25.0486L62.4422 25.9914C63.3587 24.2767 63.8003 22.3096 63.8003 20.12H61.8003ZM60.6721 25.0606C59.9633 26.4309 58.9457 27.471 57.6025 28.2015L58.5581 29.9585C60.2549 29.0356 61.5573 27.7025 62.4485 25.9794L60.6721 25.0606ZM57.596 28.2051C56.2745 28.9366 54.7001 29.32 52.8403 29.32V31.32C54.9805 31.32 56.8994 30.8767 58.5646 29.9549L57.596 28.2051ZM52.8003 27.44C54.6662 27.44 56.2211 26.8148 57.3012 25.4647L55.7394 24.2153C55.1129 24.9985 54.1878 25.44 52.8003 25.44V27.44ZM57.3012 25.4647C58.3537 24.149 58.8003 22.314 58.8003 20.12H56.8003C56.8003 22.086 56.3936 23.3977 55.7394 24.2153L57.3012 25.4647ZM58.8003 20.12C58.8003 17.949 58.3522 16.1291 57.3012 14.8153L55.7394 16.0647C56.3951 16.8842 56.8003 18.1844 56.8003 20.12H58.8003ZM57.3086 14.8247C56.2352 13.4494 54.6948 12.8 52.8403 12.8V14.8C54.1858 14.8 55.0988 15.244 55.732 16.0553L57.3086 14.8247ZM52.8403 12.8C50.9854 12.8 49.4392 13.4489 48.3413 14.813L49.8993 16.067C50.5614 15.2444 51.4953 14.8 52.8403 14.8V12.8ZM48.3394 14.8153C47.2884 16.1291 46.8403 17.949 46.8403 20.12H48.8403C48.8403 18.1844 49.2456 16.8842 49.9012 16.0647L48.3394 14.8153ZM46.8403 20.12C46.8403 22.314 47.2869 24.149 48.3394 25.4647L49.9012 24.2153C49.2471 23.3977 48.8403 22.086 48.8403 20.12H46.8403ZM48.3394 25.4647C49.4162 26.8106 50.9548 27.44 52.8003 27.44V25.44C51.4458 25.44 50.5311 25.0027 49.9012 24.2153L48.3394 25.4647ZM70.4481 29.08L69.9571 29.9512L69.9638 29.9549L70.4481 29.08ZM67.0481 25.56L67.933 25.0943L67.933 25.0943L67.0481 25.56ZM67.0881 14.88L66.2091 14.4032L66.2062 14.4086L67.0881 14.88ZM70.6481 11.24L71.1377 12.112L71.1377 12.112L70.6481 11.24ZM79.0081 10.4L78.7367 11.3625L78.743 11.3642L79.0081 10.4ZM81.8081 11.6L82.3568 10.764L82.35 10.7595L82.3432 10.7552L81.8081 11.6ZM82.6481 15.16L81.8618 14.5421L81.8555 14.5503L82.6481 15.16ZM80.6481 15.48L80.2635 16.4031L80.2635 16.4031L80.6481 15.48ZM79.6881 15L79.1794 15.8609L79.1843 15.8638L79.6881 15ZM78.0081 14.2L77.6367 15.1285L77.6571 15.1366L77.6778 15.1439L78.0081 14.2ZM72.3281 15.52L71.5584 14.8817L71.5568 14.8836L72.3281 15.52ZM72.3281 24.8L71.5491 25.427L71.5575 25.4374L71.5662 25.4476L72.3281 24.8ZM77.9281 26.12L78.2738 27.0583L78.2867 27.0536L78.2995 27.0485L77.9281 26.12ZM79.6881 25.28L80.1644 26.1593L80.1838 26.1488L80.2026 26.1375L79.6881 25.28ZM80.7281 24.76L81.0699 25.6998L81.1065 25.6865L81.1419 25.6704L80.7281 24.76ZM82.6881 25.12L83.4744 24.5022L83.4744 24.5022L82.6881 25.12ZM82.8081 27.72L81.9565 27.1959L81.9503 27.2059L81.9443 27.2161L82.8081 27.72ZM81.8481 28.6L81.3411 27.7381L81.3233 27.7485L81.306 27.7597L81.8481 28.6ZM78.9681 29.88L79.2273 30.8458L79.2382 30.8429L79.249 30.8397L78.9681 29.88ZM75.6081 29.32C73.8068 29.32 72.2578 28.9388 70.9324 28.2051L69.9638 29.9549C71.6251 30.8746 73.5161 31.32 75.6081 31.32V29.32ZM70.9391 28.2088C69.6436 27.4786 68.6454 26.4477 67.933 25.0943L66.1632 26.0257C67.0509 27.7123 68.3193 29.028 69.9571 29.9512L70.9391 28.2088ZM67.933 25.0943C67.2211 23.7416 66.8481 22.1335 66.8481 20.24H64.8481C64.8481 22.3998 65.2751 24.3384 66.1632 26.0257L67.933 25.0943ZM66.8481 20.24C66.8481 18.352 67.2322 16.7319 67.9701 15.3514L66.2062 14.4086C65.2907 16.1214 64.8481 18.0746 64.8481 20.24H66.8481ZM67.9672 15.3568C68.7331 13.9446 69.7868 12.8704 71.1377 12.112L70.1586 10.368C68.4695 11.3163 67.1498 12.6687 66.2091 14.4032L67.9672 15.3568ZM71.1377 12.112C72.4893 11.3532 74.0632 10.96 75.8881 10.96V8.96C73.7663 8.96 71.847 9.42016 70.1586 10.368L71.1377 12.112ZM75.8881 10.96C76.8328 10.96 77.7815 11.0931 78.7367 11.3624L79.2796 9.43755C78.1547 9.12028 77.0234 8.96 75.8881 8.96V10.96ZM78.743 11.3642C79.7299 11.6356 80.5693 11.9991 81.2731 12.4448L82.3432 10.7552C81.4469 10.1876 80.4197 9.75106 79.2733 9.43579L78.743 11.3642ZM81.2595 12.436C81.8948 12.853 82.0881 13.2733 82.0881 13.72H84.0881C84.0881 12.46 83.4281 11.467 82.3568 10.764L81.2595 12.436ZM82.0881 13.72C82.0881 14.1367 81.9866 14.3833 81.8618 14.5422L83.4344 15.7778C83.8963 15.19 84.0881 14.4766 84.0881 13.72H82.0881ZM81.8555 14.5503C81.7861 14.6406 81.7242 14.68 81.5681 14.68V16.68C82.3187 16.68 82.9769 16.3728 83.4408 15.7697L81.8555 14.5503ZM81.5681 14.68C81.4285 14.68 81.2527 14.6486 81.0327 14.5569L80.2635 16.4031C80.6836 16.5781 81.1211 16.68 81.5681 16.68V14.68ZM81.0327 14.5569C80.7565 14.4418 80.4762 14.302 80.192 14.1362L79.1843 15.8638C79.54 16.0713 79.8998 16.2515 80.2635 16.4031L81.0327 14.5569ZM80.1969 14.1391C79.5647 13.7655 78.945 13.4684 78.3385 13.2561L77.6778 15.1439C78.1379 15.3049 78.6382 15.5411 79.1794 15.8609L80.1969 14.1391ZM78.3795 13.2715C77.7064 13.0023 76.963 12.88 76.1681 12.88V14.88C76.7599 14.88 77.2432 14.9711 77.6367 15.1285L78.3795 13.2715ZM76.1681 12.88C74.2716 12.88 72.6872 13.5204 71.5584 14.8817L73.0979 16.1583C73.7824 15.3329 74.758 14.88 76.1681 14.88V12.88ZM71.5568 14.8836C70.4737 16.1964 70.0081 18.006 70.0081 20.16H72.0081C72.0081 18.2606 72.4226 16.9769 73.0995 16.1564L71.5568 14.8836ZM70.0081 20.16C70.0081 22.2933 70.4762 24.094 71.5491 25.427L73.1071 24.173C72.42 23.3193 72.0081 22.0267 72.0081 20.16H70.0081ZM71.5662 25.4476C72.6978 26.779 74.2801 27.4 76.1681 27.4V25.4C74.7495 25.4 73.7718 24.9543 73.0901 24.1524L71.5662 25.4476ZM76.1681 27.4C76.9261 27.4 77.6339 27.2941 78.2738 27.0583L77.5824 25.1817C77.209 25.3192 76.7435 25.4 76.1681 25.4V27.4ZM78.2995 27.0485C78.8767 26.8176 79.4989 26.5198 80.1644 26.1593L79.2118 24.4007C78.5973 24.7336 78.0462 24.9957 77.5567 25.1915L78.2995 27.0485ZM80.2026 26.1375C80.5719 25.916 80.8582 25.7768 81.0699 25.6998L80.3864 23.8202C80.0114 23.9566 79.6044 24.164 79.1736 24.4225L80.2026 26.1375ZM81.1419 25.6704C81.3182 25.5902 81.4711 25.56 81.6081 25.56V23.56C81.1585 23.56 80.7247 23.6631 80.3143 23.8496L81.1419 25.6704ZM81.6081 25.56C81.6905 25.56 81.7737 25.5747 81.9018 25.7378L83.4744 24.5022C83.0159 23.9186 82.3791 23.56 81.6081 23.56V25.56ZM81.9018 25.7378C82.0329 25.9047 82.1281 26.1422 82.1281 26.52H84.1281C84.1281 25.7778 83.93 25.082 83.4744 24.5022L81.9018 25.7378ZM82.1281 26.52C82.1281 26.8099 82.0621 27.0243 81.9565 27.1959L83.6598 28.2441C83.9809 27.7223 84.1281 27.1367 84.1281 26.52H82.1281ZM81.9443 27.2161C81.8727 27.339 81.7052 27.5239 81.3411 27.7381L82.3551 29.4619C82.8977 29.1428 83.3702 28.741 83.6719 28.2239L81.9443 27.2161ZM81.306 27.7597C80.5718 28.2334 79.7024 28.6231 78.6872 28.9203L79.249 30.8397C80.4205 30.4969 81.4711 30.0333 82.3903 29.4403L81.306 27.7597ZM78.709 28.9142C77.7013 29.1845 76.6684 29.32 75.6081 29.32V31.32C76.8411 31.32 78.0483 31.1621 79.2273 30.8458L78.709 28.9142ZM100.979 12L100.258 12.6928L100.265 12.7L100.272 12.7071L100.979 12ZM102.339 29.6L103.023 30.3295L103.035 30.3185L103.046 30.3071L102.339 29.6ZM98.8594 29.56L98.1523 30.2671L98.163 30.2778L98.174 30.2882L98.8594 29.56ZM98.2194 27H99.2194L97.3027 26.6004L98.2194 27ZM96.0594 29.44L95.5483 28.5804L95.5379 28.5867L96.0594 29.44ZM89.1394 29.52L88.6922 30.4144L88.6922 30.4144L89.1394 29.52ZM86.6194 27.32L85.7837 27.8692L85.7837 27.8692L86.6194 27.32ZM86.7794 20.8L86.0373 20.1297L86.0312 20.1364L86.0253 20.1432L86.7794 20.8ZM90.3794 19L90.1591 18.0246L90.1591 18.0246L90.3794 19ZM98.2194 18.44V19.44H99.2194V18.44H98.2194ZM97.3794 14.68L96.6409 15.3543L96.6484 15.3625L96.656 15.3705L97.3794 14.68ZM92.2994 14.12L92.557 15.0862L92.5719 15.0823L92.5867 15.0778L92.2994 14.12ZM89.4594 15.08L89.0958 14.1484L89.0531 14.1651L89.0122 14.1856L89.4594 15.08ZM86.7394 15.08L85.976 15.7259L85.9899 15.7424L86.0046 15.7583L86.7394 15.08ZM86.6194 12.56L85.7972 11.9908L85.7922 11.998L85.7873 12.0053L86.6194 12.56ZM87.7794 11.6L87.3023 10.7211L87.2975 10.7238L87.7794 11.6ZM91.0994 10.4L90.8803 9.42427L90.876 9.42527L91.0994 10.4ZM96.9394 25.4L96.2112 24.7146L96.2105 24.7153L96.9394 25.4ZM98.2194 21.08H99.2194V20.08H98.2194V21.08ZM93.3394 21.32L93.4994 22.3071L93.4994 22.3071L93.3394 21.32ZM91.2194 22.16L91.9033 22.8895L91.9033 22.8895L91.2194 22.16ZM91.4594 25.92L90.7689 26.6434L90.7857 26.6594L90.8032 26.6746L91.4594 25.92ZM94.9394 10.96C97.5088 10.96 99.2104 11.6022 100.258 12.6928L101.7 11.3072C100.135 9.67782 97.81 8.96 94.9394 8.96V10.96ZM100.272 12.7071C101.347 13.7818 101.979 15.5175 101.979 18.12H103.979C103.979 15.2292 103.278 12.8848 101.686 11.2929L100.272 12.7071ZM101.979 18.12V27.88H103.979V18.12H101.979ZM101.979 27.88C101.979 28.3897 101.836 28.6893 101.632 28.8929L103.046 30.3071C103.696 29.6573 103.979 28.8103 103.979 27.88H101.979ZM101.655 28.8705C101.461 29.0525 101.145 29.2 100.579 29.2V31.2C101.507 31.2 102.364 30.9475 103.023 30.3295L101.655 28.8705ZM100.579 29.2C100.109 29.2 99.7909 29.0635 99.5447 28.8318L98.174 30.2882C98.8345 30.9099 99.6627 31.2 100.579 31.2V29.2ZM99.5665 28.8529C99.3556 28.6421 99.2194 28.351 99.2194 27.88H97.2194C97.2194 28.7957 97.5098 29.6246 98.1523 30.2671L99.5665 28.8529ZM99.2194 27.88V27H97.2194V27.88H99.2194ZM97.3027 26.6004C96.9341 27.446 96.3572 28.0995 95.5483 28.5805L96.5705 30.2995C97.7349 29.6072 98.598 28.634 99.1361 27.3996L97.3027 26.6004ZM95.5379 28.5867C94.7557 29.0648 93.8213 29.32 92.6994 29.32V31.32C94.1375 31.32 95.4431 30.9886 96.5808 30.2933L95.5379 28.5867ZM92.6994 29.32C91.5329 29.32 90.5015 29.083 89.5866 28.6256L88.6922 30.4144C89.9106 31.0236 91.2526 31.32 92.6994 31.32V29.32ZM89.5866 28.6256C88.6665 28.1655 87.965 27.5468 87.4551 26.7708L85.7837 27.8692C86.5004 28.9598 87.4789 29.8078 88.6922 30.4144L89.5866 28.6256ZM87.4551 26.7708C86.9519 26.0052 86.6994 25.157 86.6994 24.2H84.6994C84.6994 25.5363 85.0602 26.7682 85.7837 27.8692L87.4551 26.7708ZM86.6994 24.2C86.6994 22.9244 87.0162 22.0507 87.5335 21.4568L86.0253 20.1432C85.1025 21.2027 84.6994 22.5956 84.6994 24.2H86.6994ZM87.5215 21.4703C88.0748 20.8577 89.049 20.3256 90.5996 19.9754L90.1591 18.0246C88.403 18.4211 86.9773 19.089 86.0373 20.1297L87.5215 21.4703ZM90.5996 19.9754C92.1473 19.626 94.3423 19.44 97.2194 19.44V17.44C94.2832 17.44 91.9181 17.6274 90.1591 18.0246L90.5996 19.9754ZM97.2194 19.44H98.2194V17.44H97.2194V19.44ZM99.2194 18.44V17.52H97.2194V18.44H99.2194ZM99.2194 17.52C99.2194 16.1059 98.9221 14.8479 98.1027 13.9895L96.656 15.3705C96.9567 15.6854 97.2194 16.3207 97.2194 17.52H99.2194ZM98.1179 14.0057C97.2897 13.0987 96.0507 12.76 94.6594 12.76V14.76C95.7748 14.76 96.3491 15.0347 96.6409 15.3543L98.1179 14.0057ZM94.6594 12.76C93.7813 12.76 92.8978 12.8964 92.012 13.1622L92.5867 15.0778C93.3009 14.8636 93.9908 14.76 94.6594 14.76V12.76ZM92.0417 13.1538C91.1944 13.3797 90.2108 13.7133 89.0958 14.1484L89.8229 16.0116C90.8947 15.5933 91.8043 15.287 92.557 15.0862L92.0417 13.1538ZM89.0122 14.1856C88.6895 14.3469 88.4326 14.4565 88.2357 14.5238C88.1381 14.5572 88.0634 14.5774 88.0092 14.5888C87.9533 14.6005 87.9326 14.6 87.9394 14.6V16.6C88.259 16.6 88.5858 16.5179 88.8831 16.4162C89.1928 16.3102 89.536 16.1597 89.9066 15.9744L89.0122 14.1856ZM87.9394 14.6C87.7329 14.6 87.6012 14.5393 87.4742 14.4017L86.0046 15.7583C86.5176 16.3141 87.1858 16.6 87.9394 16.6V14.6ZM87.5028 14.4341C87.3954 14.3072 87.2994 14.1006 87.2994 13.72H85.2994C85.2994 14.4594 85.4967 15.1595 85.976 15.7259L87.5028 14.4341ZM87.2994 13.72C87.2994 13.4281 87.366 13.2428 87.4514 13.1147L85.7873 12.0053C85.4461 12.5172 85.2994 13.1053 85.2994 13.72H87.2994ZM87.4416 13.1292C87.5632 12.9536 87.8077 12.7257 88.2613 12.4762L87.2975 10.7238C86.6844 11.061 86.1556 11.4731 85.7972 11.9908L87.4416 13.1292ZM88.2565 12.4789C89.0938 12.0243 90.1113 11.6524 91.3228 11.3747L90.876 9.42527C89.5275 9.73431 88.3317 10.1623 87.3023 10.7211L88.2565 12.4789ZM91.3184 11.3757C92.5581 11.0974 93.7646 10.96 94.9394 10.96V8.96C93.6075 8.96 92.254 9.11591 90.8803 9.42428L91.3184 11.3757ZM93.6994 27.72C95.2768 27.72 96.6317 27.188 97.6682 26.0847L96.2105 24.7153C95.5937 25.372 94.7886 25.72 93.6994 25.72V27.72ZM97.6676 26.0854C98.7194 24.9678 99.2194 23.5509 99.2194 21.92H97.2194C97.2194 23.1157 96.866 24.0188 96.2112 24.7146L97.6676 26.0854ZM99.2194 21.92V21.08H97.2194V21.92H99.2194ZM98.2194 20.08H97.4994V22.08H98.2194V20.08ZM97.4994 20.08C95.6938 20.08 94.2447 20.1601 93.1793 20.3329L93.4994 22.3071C94.4074 22.1599 95.7316 22.08 97.4994 22.08V20.08ZM93.1793 20.3329C92.1202 20.5046 91.1776 20.8284 90.5354 21.4305L91.9033 22.8895C92.1145 22.6916 92.5853 22.4554 93.4994 22.3071L93.1793 20.3329ZM90.5354 21.4305C89.8698 22.0545 89.5794 22.8859 89.5794 23.8H91.5794C91.5794 23.3274 91.7156 23.0655 91.9033 22.8895L90.5354 21.4305ZM89.5794 23.8C89.5794 24.9106 89.9733 25.8839 90.7689 26.6434L92.1499 25.1966C91.7721 24.8361 91.5794 24.396 91.5794 23.8H89.5794ZM90.8032 26.6746C91.6141 27.3798 92.5998 27.72 93.6994 27.72V25.72C93.039 25.72 92.5313 25.5269 92.1156 25.1654L90.8032 26.6746ZM118.981 10.04L119.052 11.0375L119.058 11.0371L118.981 10.04ZM120.621 10.48L119.966 11.2357L119.966 11.2357L120.621 10.48ZM118.821 14.32L118.92 15.315L118.929 15.3142L118.938 15.3131L118.821 14.32ZM117.621 14.44L117.521 13.445L117.52 13.4451L117.621 14.44ZM114.141 16.04L113.369 15.4043L113.363 15.4112L113.358 15.4181L114.141 16.04ZM112.341 29.64L112.981 30.4082L112.993 30.398L113.005 30.3874L112.341 29.64ZM108.741 29.64L108.056 30.3682L108.078 30.3889L108.101 30.4082L108.741 29.64ZM108.741 10.64L108.101 9.87178L108.09 9.88082L108.079 9.89016L108.741 10.64ZM112.181 10.64L111.497 11.3695L111.51 11.3813L111.522 11.3926L112.181 10.64ZM112.821 13.88H111.821L113.739 14.2764L112.821 13.88ZM115.061 11.16L114.527 10.3144L114.517 10.321L115.061 11.16ZM118.421 10.08L118.486 11.0779L118.492 11.0775L118.421 10.08ZM119.058 11.0371C119.572 10.9975 119.825 11.1138 119.966 11.2357L121.276 9.72431C120.616 9.15285 119.777 8.97581 118.904 9.04295L119.058 11.0371ZM119.966 11.2357C120.084 11.3377 120.221 11.5411 120.221 12.04H122.221C122.221 11.1523 121.958 10.3157 121.276 9.72431L119.966 11.2357ZM120.221 12.04C120.221 12.6186 120.081 12.8462 119.994 12.9329L121.408 14.3471C122.015 13.7405 122.221 12.9014 122.221 12.04H120.221ZM119.994 12.9329C119.894 13.0324 119.555 13.2267 118.704 13.3268L118.938 15.3131C119.9 15.1999 120.814 14.941 121.408 14.3471L119.994 12.9329ZM118.721 13.325L117.521 13.445L117.72 15.435L118.92 15.315L118.721 13.325ZM117.52 13.4451C115.778 13.6223 114.335 14.2317 113.369 15.4043L114.913 16.6757C115.441 16.035 116.318 15.5777 117.722 15.4349L117.52 13.4451ZM113.358 15.4181C112.474 16.5314 112.061 17.8953 112.061 19.44H114.061C114.061 18.2647 114.368 17.362 114.924 16.6619L113.358 15.4181ZM112.061 19.44V27.84H114.061V19.44H112.061ZM112.061 27.84C112.061 28.3912 111.9 28.6942 111.677 28.8926L113.005 30.3874C113.742 29.7325 114.061 28.8354 114.061 27.84H112.061ZM111.701 28.8718C111.427 29.0996 111.065 29.24 110.541 29.24V31.24C111.457 31.24 112.294 30.9804 112.981 30.4082L111.701 28.8718ZM110.541 29.24C110.017 29.24 109.654 29.0996 109.381 28.8718L108.101 30.4082C108.787 30.9804 109.625 31.24 110.541 31.24V29.24ZM109.426 28.9118C109.22 28.718 109.061 28.409 109.061 27.84H107.061C107.061 28.8177 107.355 29.7086 108.056 30.3682L109.426 28.9118ZM109.061 27.84V12.36H107.061V27.84H109.061ZM109.061 12.36C109.061 11.8273 109.214 11.5565 109.403 11.3898L108.079 9.89016C107.362 10.5235 107.061 11.3994 107.061 12.36H109.061ZM109.381 11.4082C109.661 11.1746 110.014 11.04 110.501 11.04V9.04C109.601 9.04 108.78 9.30538 108.101 9.87178L109.381 11.4082ZM110.501 11.04C110.99 11.04 111.289 11.1748 111.497 11.3695L112.865 9.91046C112.219 9.3052 111.398 9.04 110.501 9.04V11.04ZM111.522 11.3926C111.676 11.5271 111.821 11.7648 111.821 12.28H113.821C113.821 11.3552 113.539 10.4995 112.839 9.88742L111.522 11.3926ZM111.821 12.28V13.88H113.821V12.28H111.821ZM113.739 14.2764C114.175 13.2678 114.798 12.5222 115.605 11.999L114.517 10.321C113.35 11.0778 112.481 12.1455 111.903 13.4836L113.739 14.2764ZM115.595 12.0055C116.463 11.457 117.421 11.1473 118.486 11.0779L118.356 9.08212C116.967 9.17269 115.685 9.58302 114.527 10.3145L115.595 12.0055ZM118.492 11.0775L119.052 11.0375L118.91 9.04254L118.35 9.08254L118.492 11.0775ZM137.753 29.08L137.262 29.9512L137.268 29.9549L137.753 29.08ZM134.353 25.56L135.238 25.0943L135.238 25.0943L134.353 25.56ZM134.393 14.88L133.514 14.4032L133.511 14.4086L134.393 14.88ZM137.953 11.24L138.442 12.112L138.442 12.112L137.953 11.24ZM146.313 10.4L146.041 11.3625L146.048 11.3642L146.313 10.4ZM149.113 11.6L149.661 10.764L149.655 10.7595L149.648 10.7552L149.113 11.6ZM149.953 15.16L149.166 14.5421L149.16 14.5503L149.953 15.16ZM147.953 15.48L147.568 16.4031L147.568 16.4031L147.953 15.48ZM146.993 15L146.484 15.8609L146.489 15.8638L146.993 15ZM145.313 14.2L144.941 15.1285L144.962 15.1366L144.982 15.1439L145.313 14.2ZM139.633 15.52L138.863 14.8817L138.861 14.8836L139.633 15.52ZM139.633 24.8L138.854 25.427L138.862 25.4374L138.871 25.4476L139.633 24.8ZM145.233 26.12L145.579 27.0583L145.591 27.0536L145.604 27.0485L145.233 26.12ZM146.993 25.28L147.469 26.1593L147.488 26.1488L147.507 26.1375L146.993 25.28ZM148.033 24.76L148.375 25.6998L148.411 25.6865L148.447 25.6704L148.033 24.76ZM149.993 25.12L150.779 24.5022L150.779 24.5022L149.993 25.12ZM150.113 27.72L149.261 27.1959L149.255 27.2059L149.249 27.2161L150.113 27.72ZM149.153 28.6L148.646 27.7381L148.628 27.7485L148.611 27.7597L149.153 28.6ZM146.273 29.88L146.532 30.8458L146.543 30.8429L146.554 30.8397L146.273 29.88ZM142.913 29.32C141.111 29.32 139.562 28.9388 138.237 28.2051L137.268 29.9549C138.93 30.8746 140.821 31.32 142.913 31.32V29.32ZM138.244 28.2088C136.948 27.4786 135.95 26.4477 135.238 25.0943L133.468 26.0257C134.356 27.7123 135.624 29.028 137.262 29.9512L138.244 28.2088ZM135.238 25.0943C134.526 23.7416 134.153 22.1335 134.153 20.24H132.153C132.153 22.3998 132.58 24.3384 133.468 26.0257L135.238 25.0943ZM134.153 20.24C134.153 18.352 134.537 16.7319 135.275 15.3514L133.511 14.4086C132.595 16.1214 132.153 18.0746 132.153 20.24H134.153ZM135.272 15.3568C136.038 13.9446 137.091 12.8704 138.442 12.112L137.463 10.368C135.774 11.3163 134.455 12.6687 133.514 14.4032L135.272 15.3568ZM138.442 12.112C139.794 11.3532 141.368 10.96 143.193 10.96V8.96C141.071 8.96 139.152 9.42016 137.463 10.368L138.442 12.112ZM143.193 10.96C144.138 10.96 145.086 11.0931 146.041 11.3624L146.584 9.43755C145.459 9.12028 144.328 8.96 143.193 8.96V10.96ZM146.048 11.3642C147.035 11.6356 147.874 11.9991 148.578 12.4448L149.648 10.7552C148.752 10.1876 147.724 9.75106 146.578 9.43579L146.048 11.3642ZM148.564 12.436C149.2 12.853 149.393 13.2733 149.393 13.72H151.393C151.393 12.46 150.733 11.467 149.661 10.764L148.564 12.436ZM149.393 13.72C149.393 14.1367 149.291 14.3833 149.166 14.5422L150.739 15.7778C151.201 15.19 151.393 14.4766 151.393 13.72H149.393ZM149.16 14.5503C149.091 14.6406 149.029 14.68 148.873 14.68V16.68C149.623 16.68 150.282 16.3728 150.745 15.7697L149.16 14.5503ZM148.873 14.68C148.733 14.68 148.557 14.6486 148.337 14.5569L147.568 16.4031C147.988 16.5781 148.426 16.68 148.873 16.68V14.68ZM148.337 14.5569C148.061 14.4418 147.781 14.302 147.497 14.1362L146.489 15.8638C146.845 16.0713 147.204 16.2515 147.568 16.4031L148.337 14.5569ZM147.502 14.1391C146.869 13.7655 146.25 13.4684 145.643 13.2561L144.982 15.1439C145.443 15.3049 145.943 15.5411 146.484 15.8609L147.502 14.1391ZM145.684 13.2715C145.011 13.0023 144.268 12.88 143.473 12.88V14.88C144.065 14.88 144.548 14.9711 144.941 15.1285L145.684 13.2715ZM143.473 12.88C141.576 12.88 139.992 13.5204 138.863 14.8817L140.403 16.1583C141.087 15.3329 142.063 14.88 143.473 14.88V12.88ZM138.861 14.8836C137.778 16.1964 137.313 18.006 137.313 20.16H139.313C139.313 18.2606 139.727 16.9769 140.404 16.1564L138.861 14.8836ZM137.313 20.16C137.313 22.2933 137.781 24.094 138.854 25.427L140.412 24.173C139.725 23.3193 139.313 22.0267 139.313 20.16H137.313ZM138.871 25.4476C140.003 26.779 141.585 27.4 143.473 27.4V25.4C142.054 25.4 141.076 24.9543 140.395 24.1524L138.871 25.4476ZM143.473 27.4C144.231 27.4 144.939 27.2941 145.579 27.0583L144.887 25.1817C144.514 25.3192 144.048 25.4 143.473 25.4V27.4ZM145.604 27.0485C146.181 26.8176 146.804 26.5198 147.469 26.1593L146.517 24.4007C145.902 24.7336 145.351 24.9957 144.861 25.1915L145.604 27.0485ZM147.507 26.1375C147.877 25.916 148.163 25.7768 148.375 25.6998L147.691 23.8202C147.316 23.9566 146.909 24.164 146.478 24.4225L147.507 26.1375ZM148.447 25.6704C148.623 25.5902 148.776 25.56 148.913 25.56V23.56C148.463 23.56 148.029 23.6631 147.619 23.8496L148.447 25.6704ZM148.913 25.56C148.995 25.56 149.078 25.5747 149.206 25.7378L150.779 24.5022C150.321 23.9186 149.684 23.56 148.913 23.56V25.56ZM149.206 25.7378C149.338 25.9047 149.433 26.1422 149.433 26.52H151.433C151.433 25.7778 151.235 25.082 150.779 24.5022L149.206 25.7378ZM149.433 26.52C149.433 26.8099 149.367 27.0243 149.261 27.1959L150.964 28.2441C151.286 27.7223 151.433 27.1367 151.433 26.52H149.433ZM149.249 27.2161C149.177 27.339 149.01 27.5239 148.646 27.7381L149.66 29.4619C150.202 29.1428 150.675 28.741 150.977 28.2239L149.249 27.2161ZM148.611 27.7597C147.876 28.2334 147.007 28.6231 145.992 28.9203L146.554 30.8397C147.725 30.4969 148.776 30.0333 149.695 29.4403L148.611 27.7597ZM146.014 28.9142C145.006 29.1845 143.973 29.32 142.913 29.32V31.32C144.146 31.32 145.353 31.1621 146.532 30.8458L146.014 28.9142ZM154.444 29.64L153.759 30.3682L153.781 30.3889L153.804 30.4082L154.444 29.64ZM154.444 2.2L153.804 1.43178L153.793 1.44082L153.782 1.45016L154.444 2.2ZM158.044 2.2L158.684 1.43178L158.684 1.43178L158.044 2.2ZM158.044 29.64L158.684 30.4082L158.697 30.398L158.708 30.3874L158.044 29.64ZM156.244 29.24C155.72 29.24 155.358 29.0996 155.084 28.8718L153.804 30.4082C154.491 30.9804 155.328 31.24 156.244 31.24V29.24ZM155.129 28.9118C154.924 28.718 154.764 28.409 154.764 27.84H152.764C152.764 28.8177 153.058 29.7086 153.759 30.3682L155.129 28.9118ZM154.764 27.84V3.96H152.764V27.84H154.764ZM154.764 3.96C154.764 3.38792 154.924 3.10987 155.106 2.94983L153.782 1.45016C153.057 2.09013 152.764 2.98541 152.764 3.96H154.764ZM155.084 2.96822C155.358 2.74041 155.72 2.6 156.244 2.6V0.599998C155.328 0.599998 154.491 0.859583 153.804 1.43178L155.084 2.96822ZM156.244 2.6C156.768 2.6 157.131 2.74041 157.404 2.96822L158.684 1.43178C157.998 0.859583 157.16 0.599998 156.244 0.599998V2.6ZM157.404 2.96822C157.603 3.13388 157.764 3.4064 157.764 3.96H159.764C159.764 2.96693 159.445 2.06612 158.684 1.43178L157.404 2.96822ZM157.764 3.96V27.84H159.764V3.96H157.764ZM157.764 27.84C157.764 28.3912 157.603 28.6942 157.38 28.8926L158.708 30.3874C159.445 29.7325 159.764 28.8354 159.764 27.84H157.764ZM157.404 28.8718C157.131 29.0996 156.768 29.24 156.244 29.24V31.24C157.16 31.24 157.998 30.9804 158.684 30.4082L157.404 28.8718ZM178.44 12L177.719 12.6928L177.726 12.7L177.733 12.7071L178.44 12ZM179.8 29.6L180.484 30.3295L180.496 30.3185L180.507 30.3071L179.8 29.6ZM176.32 29.56L175.613 30.2671L175.624 30.2778L175.635 30.2882L176.32 29.56ZM175.68 27H176.68L174.764 26.6004L175.68 27ZM173.52 29.44L173.009 28.5804L172.999 28.5867L173.52 29.44ZM166.6 29.52L166.153 30.4144L166.153 30.4144L166.6 29.52ZM164.08 27.32L163.245 27.8692L163.245 27.8692L164.08 27.32ZM164.24 20.8L163.498 20.1297L163.492 20.1364L163.486 20.1432L164.24 20.8ZM167.84 19L167.62 18.0246L167.62 18.0246L167.84 19ZM175.68 18.44V19.44H176.68V18.44H175.68ZM174.84 14.68L174.102 15.3543L174.109 15.3625L174.117 15.3705L174.84 14.68ZM169.76 14.12L170.018 15.0862L170.033 15.0823L170.048 15.0778L169.76 14.12ZM166.92 15.08L166.557 14.1484L166.514 14.1651L166.473 14.1856L166.92 15.08ZM164.2 15.08L163.437 15.7259L163.451 15.7424L163.466 15.7583L164.2 15.08ZM164.08 12.56L163.258 11.9908L163.253 11.998L163.248 12.0053L164.08 12.56ZM165.24 11.6L164.763 10.7211L164.758 10.7238L165.24 11.6ZM168.56 10.4L168.341 9.42427L168.337 9.42527L168.56 10.4ZM174.4 25.4L173.672 24.7146L173.671 24.7153L174.4 25.4ZM175.68 21.08H176.68V20.08H175.68V21.08ZM170.8 21.32L170.96 22.3071L170.96 22.3071L170.8 21.32ZM168.68 22.16L169.364 22.8895L169.364 22.8895L168.68 22.16ZM168.92 25.92L168.23 26.6434L168.247 26.6594L168.264 26.6746L168.92 25.92ZM172.4 10.96C174.97 10.96 176.671 11.6022 177.719 12.6928L179.161 11.3072C177.596 9.67782 175.271 8.96 172.4 8.96V10.96ZM177.733 12.7071C178.808 13.7818 179.44 15.5175 179.44 18.12H181.44C181.44 15.2292 180.739 12.8848 179.147 11.2929L177.733 12.7071ZM179.44 18.12V27.88H181.44V18.12H179.44ZM179.44 27.88C179.44 28.3897 179.297 28.6893 179.093 28.8929L180.507 30.3071C181.157 29.6573 181.44 28.8103 181.44 27.88H179.44ZM179.116 28.8705C178.922 29.0525 178.606 29.2 178.04 29.2V31.2C178.968 31.2 179.825 30.9475 180.484 30.3295L179.116 28.8705ZM178.04 29.2C177.57 29.2 177.252 29.0635 177.006 28.8318L175.635 30.2882C176.295 30.9099 177.124 31.2 178.04 31.2V29.2ZM177.027 28.8529C176.817 28.6421 176.68 28.351 176.68 27.88H174.68C174.68 28.7957 174.971 29.6246 175.613 30.2671L177.027 28.8529ZM176.68 27.88V27H174.68V27.88H176.68ZM174.764 26.6004C174.395 27.446 173.818 28.0995 173.009 28.5805L174.031 30.2995C175.196 29.6072 176.059 28.634 176.597 27.3996L174.764 26.6004ZM172.999 28.5867C172.217 29.0648 171.282 29.32 170.16 29.32V31.32C171.598 31.32 172.904 30.9886 174.042 30.2933L172.999 28.5867ZM170.16 29.32C168.994 29.32 167.962 29.083 167.048 28.6256L166.153 30.4144C167.372 31.0236 168.714 31.32 170.16 31.32V29.32ZM167.048 28.6256C166.127 28.1655 165.426 27.5468 164.916 26.7708L163.245 27.8692C163.961 28.9598 164.94 29.8078 166.153 30.4144L167.048 28.6256ZM164.916 26.7708C164.413 26.0052 164.16 25.157 164.16 24.2H162.16C162.16 25.5363 162.521 26.7682 163.245 27.8692L164.916 26.7708ZM164.16 24.2C164.16 22.9244 164.477 22.0507 164.994 21.4568L163.486 20.1432C162.563 21.2027 162.16 22.5956 162.16 24.2H164.16ZM164.982 21.4703C165.536 20.8577 166.51 20.3256 168.061 19.9754L167.62 18.0246C165.864 18.4211 164.438 19.089 163.498 20.1297L164.982 21.4703ZM168.061 19.9754C169.608 19.626 171.803 19.44 174.68 19.44V17.44C171.744 17.44 169.379 17.6274 167.62 18.0246L168.061 19.9754ZM174.68 19.44H175.68V17.44H174.68V19.44ZM176.68 18.44V17.52H174.68V18.44H176.68ZM176.68 17.52C176.68 16.1059 176.383 14.8479 175.564 13.9895L174.117 15.3705C174.418 15.6854 174.68 16.3207 174.68 17.52H176.68ZM175.579 14.0057C174.751 13.0987 173.512 12.76 172.12 12.76V14.76C173.236 14.76 173.81 15.0347 174.102 15.3543L175.579 14.0057ZM172.12 12.76C171.242 12.76 170.359 12.8964 169.473 13.1622L170.048 15.0778C170.762 14.8636 171.452 14.76 172.12 14.76V12.76ZM169.503 13.1538C168.655 13.3797 167.672 13.7133 166.557 14.1484L167.284 16.0116C168.356 15.5933 169.265 15.287 170.018 15.0862L169.503 13.1538ZM166.473 14.1856C166.15 14.3469 165.894 14.4565 165.697 14.5238C165.599 14.5572 165.524 14.5774 165.47 14.5888C165.414 14.6005 165.394 14.6 165.4 14.6V16.6C165.72 16.6 166.047 16.5179 166.344 16.4162C166.654 16.3102 166.997 16.1597 167.368 15.9744L166.473 14.1856ZM165.4 14.6C165.194 14.6 165.062 14.5393 164.935 14.4017L163.466 15.7583C163.979 16.3141 164.647 16.6 165.4 16.6V14.6ZM164.964 14.4341C164.856 14.3072 164.76 14.1006 164.76 13.72H162.76C162.76 14.4594 162.958 15.1595 163.437 15.7259L164.964 14.4341ZM164.76 13.72C164.76 13.4281 164.827 13.2428 164.912 13.1147L163.248 12.0053C162.907 12.5172 162.76 13.1053 162.76 13.72H164.76ZM164.903 13.1292C165.024 12.9536 165.269 12.7257 165.722 12.4762L164.758 10.7238C164.145 11.061 163.617 11.4731 163.258 11.9908L164.903 13.1292ZM165.717 12.4789C166.555 12.0243 167.572 11.6524 168.784 11.3747L168.337 9.42527C166.988 9.73431 165.793 10.1623 164.763 10.7211L165.717 12.4789ZM168.779 11.3757C170.019 11.0974 171.226 10.96 172.4 10.96V8.96C171.068 8.96 169.715 9.11591 168.341 9.42428L168.779 11.3757ZM171.16 27.72C172.738 27.72 174.093 27.188 175.129 26.0847L173.671 24.7153C173.055 25.372 172.25 25.72 171.16 25.72V27.72ZM175.129 26.0854C176.18 24.9678 176.68 23.5509 176.68 21.92H174.68C174.68 23.1157 174.327 24.0188 173.672 24.7146L175.129 26.0854ZM176.68 21.92V21.08H174.68V21.92H176.68ZM175.68 20.08H174.96V22.08H175.68V20.08ZM174.96 20.08C173.155 20.08 171.706 20.1601 170.64 20.3329L170.96 22.3071C171.868 22.1599 173.193 22.08 174.96 22.08V20.08ZM170.64 20.3329C169.581 20.5046 168.639 20.8284 167.996 21.4305L169.364 22.8895C169.575 22.6916 170.046 22.4554 170.96 22.3071L170.64 20.3329ZM167.996 21.4305C167.331 22.0545 167.04 22.8859 167.04 23.8H169.04C169.04 23.3274 169.177 23.0655 169.364 22.8895L167.996 21.4305ZM167.04 23.8C167.04 24.9106 167.434 25.8839 168.23 26.6434L169.611 25.1966C169.233 24.8361 169.04 24.396 169.04 23.8H167.04ZM168.264 26.6746C169.075 27.3798 170.061 27.72 171.16 27.72V25.72C170.5 25.72 169.992 25.5269 169.576 25.1654L168.264 26.6746ZM185.562 28.6L186.102 27.7584L186.087 27.749L186.072 27.7401L185.562 28.6ZM184.722 25.16L185.459 25.8357L185.472 25.8211L185.485 25.8059L184.722 25.16ZM187.682 25.28L187.211 26.1624L187.234 26.1745L187.257 26.1855L187.682 25.28ZM190.002 26.2L189.708 27.1558L189.718 27.1588L190.002 26.2ZM195.322 25.96L194.818 25.0962L194.81 25.1009L194.802 25.1058L195.322 25.96ZM195.882 23.32L195.139 23.989L195.156 24.0085L195.175 24.0271L195.882 23.32ZM194.522 22.6L194.171 23.5363L194.194 23.5449L194.217 23.5524L194.522 22.6ZM191.562 21.8L191.777 20.8234L191.768 20.8215L191.76 20.8198L191.562 21.8ZM186.442 19.76L185.786 20.5151L185.796 20.5234L186.442 19.76ZM185.962 12.96L186.765 13.5564L186.773 13.5455L185.962 12.96ZM188.802 10.76L189.191 11.6813L189.201 11.6771L188.802 10.76ZM196.202 10.4L195.93 11.3624L195.942 11.3657L195.954 11.3687L196.202 10.4ZM199.002 11.6L198.46 12.4403L198.466 12.4442L198.472 12.448L199.002 11.6ZM199.842 15.08L200.605 15.7259L200.617 15.7121L200.628 15.6978L199.842 15.08ZM197.882 15.44L197.435 16.3344L197.486 16.3601L197.54 16.3798L197.882 15.44ZM196.842 14.88L197.332 14.0084L197.317 13.9998L197.301 13.9918L196.842 14.88ZM194.842 14L194.486 14.9345L194.506 14.942L194.526 14.9487L194.842 14ZM190.402 14.28L189.839 13.4538L189.83 13.4599L189.821 13.4663L190.402 14.28ZM190.442 17.44L189.933 18.3009L189.933 18.3009L190.442 17.44ZM193.842 18.48L194.046 17.5011L194.044 17.5006L193.842 18.48ZM198.042 19.76L198.47 18.8563L198.47 18.8563L198.042 19.76ZM200.202 21.56L199.342 22.0698L199.348 22.0814L199.356 22.0928L200.202 21.56ZM198.602 28.68L198.018 27.8682L198.011 27.8731L198.602 28.68ZM192.602 29.32C189.818 29.32 187.678 28.7701 186.102 27.7584L185.022 29.4416C187.019 30.7233 189.572 31.32 192.602 31.32V29.32ZM186.072 27.7401C185.499 27.3998 185.282 26.994 185.282 26.44H183.282C183.282 27.7526 183.918 28.7869 185.051 29.4599L186.072 27.7401ZM185.282 26.44C185.282 26.0969 185.371 25.9314 185.459 25.8357L183.985 24.4843C183.486 25.0286 183.282 25.7164 183.282 26.44H185.282ZM185.485 25.8059C185.603 25.6674 185.69 25.64 185.802 25.64V23.64C185.06 23.64 184.428 23.9593 183.958 24.5141L185.485 25.8059ZM185.802 25.64C185.996 25.64 186.439 25.7503 187.211 26.1624L188.152 24.3976C187.325 23.9564 186.514 23.64 185.802 23.64V25.64ZM187.257 26.1855C188.141 26.5997 188.959 26.9254 189.708 27.1558L190.296 25.2442C189.658 25.0479 188.929 24.7603 188.106 24.3745L187.257 26.1855ZM189.718 27.1588C190.562 27.4088 191.572 27.52 192.722 27.52V25.52C191.685 25.52 190.882 25.4179 190.286 25.2412L189.718 27.1588ZM192.722 27.52C193.931 27.52 195.007 27.3222 195.842 26.8142L194.802 25.1058C194.41 25.3445 193.752 25.52 192.722 25.52V27.52ZM195.826 26.8238C196.732 26.2953 197.282 25.4677 197.282 24.4H195.282C195.282 24.6657 195.192 24.878 194.818 25.0962L195.826 26.8238ZM197.282 24.4C197.282 23.7388 197.08 23.1041 196.589 22.6129L195.175 24.0271C195.217 24.0693 195.282 24.1546 195.282 24.4H197.282ZM196.625 22.651C196.199 22.1779 195.529 21.8725 194.827 21.6476L194.217 23.5524C194.848 23.7542 195.084 23.9288 195.139 23.989L196.625 22.651ZM194.873 21.6637C194.164 21.3977 193.12 21.1189 191.777 20.8234L191.347 22.7766C192.67 23.0677 193.6 23.3223 194.171 23.5363L194.873 21.6637ZM191.76 20.8198C189.442 20.3509 187.934 19.713 187.088 18.9966L185.796 20.5234C187.029 21.567 188.935 22.2891 191.364 22.7802L191.76 20.8198ZM187.098 19.005C186.337 18.3448 185.922 17.426 185.922 16.12H183.922C183.922 17.9074 184.52 19.4152 185.786 20.515L187.098 19.005ZM185.922 16.12C185.922 15.1593 186.201 14.3155 186.765 13.5563L185.159 12.3637C184.336 13.4711 183.922 14.734 183.922 16.12H185.922ZM186.773 13.5455C187.348 12.7485 188.142 12.1241 189.191 11.6812L188.413 9.83875C187.062 10.4093 185.962 11.2515 185.151 12.3745L186.773 13.5455ZM189.201 11.6771C190.283 11.2063 191.531 10.96 192.962 10.96V8.96C191.299 8.96 189.774 9.247 188.403 9.84293L189.201 11.6771ZM192.962 10.96C193.993 10.96 194.982 11.0949 195.93 11.3624L196.473 9.43755C195.342 9.1184 194.17 8.96 192.962 8.96V10.96ZM195.954 11.3687C196.899 11.611 197.731 11.9704 198.46 12.4403L199.544 10.7597C198.619 10.163 197.585 9.72228 196.45 9.43134L195.954 11.3687ZM198.472 12.448C199.082 12.8296 199.282 13.2394 199.282 13.72H201.282C201.282 12.4406 200.628 11.4371 199.532 10.752L198.472 12.448ZM199.282 13.72C199.282 14.0584 199.193 14.2867 199.056 14.4622L200.628 15.6978C201.077 15.1267 201.282 14.4482 201.282 13.72H199.282ZM199.078 14.4341C198.961 14.5726 198.873 14.6 198.762 14.6V16.6C199.504 16.6 200.136 16.2807 200.605 15.7259L199.078 14.4341ZM198.762 14.6C198.592 14.6 198.414 14.5696 198.224 14.5002L197.54 16.3798C197.936 16.5237 198.345 16.6 198.762 16.6V14.6ZM198.329 14.5456C198.083 14.4226 197.752 14.2448 197.332 14.0084L196.352 15.7516C196.785 15.9952 197.147 16.1907 197.435 16.3344L198.329 14.5456ZM197.301 13.9918C196.501 13.578 195.784 13.2601 195.158 13.0513L194.526 14.9487C195.019 15.1132 195.636 15.382 196.382 15.7682L197.301 13.9918ZM195.198 13.0655C194.49 12.7958 193.667 12.68 192.762 12.68V14.68C193.51 14.68 194.074 14.7775 194.486 14.9345L195.198 13.0655ZM192.762 12.68C191.65 12.68 190.644 12.9043 189.839 13.4538L190.965 15.1062C191.333 14.8557 191.9 14.68 192.762 14.68V12.68ZM189.821 13.4663C188.996 14.0556 188.562 14.9066 188.562 15.92H190.562C190.562 15.5467 190.688 15.3044 190.983 15.0937L189.821 13.4663ZM188.562 15.92C188.562 16.9499 189.05 17.7793 189.933 18.3009L190.951 16.5791C190.66 16.4074 190.562 16.2235 190.562 15.92H188.562ZM189.933 18.3009C190.68 18.7424 191.967 19.1142 193.64 19.4594L194.044 17.5006C192.357 17.1525 191.377 16.8309 190.951 16.5791L189.933 18.3009ZM193.637 19.4589C195.389 19.8248 196.702 20.2319 197.614 20.6637L198.47 18.8563C197.355 18.3281 195.869 17.8819 194.046 17.5011L193.637 19.4589ZM197.614 20.6637C198.507 21.0868 199.046 21.5706 199.342 22.0698L201.062 21.0502C200.505 20.1094 199.603 19.3932 198.47 18.8563L197.614 20.6637ZM199.356 22.0928C199.681 22.6102 199.882 23.3302 199.882 24.32H201.882C201.882 23.0698 201.629 21.9498 201.048 21.0272L199.356 22.0928ZM199.882 24.32C199.882 25.7993 199.287 26.9555 198.018 27.8682L199.186 29.4918C200.957 28.2178 201.882 26.4673 201.882 24.32H199.882ZM198.011 27.8731C196.741 28.8033 194.97 29.32 192.602 29.32V31.32C195.247 31.32 197.476 30.7434 199.193 29.4869L198.011 27.8731ZM204.976 28.6L205.516 27.7584L205.501 27.749L205.486 27.7401L204.976 28.6ZM204.136 25.16L204.873 25.8357L204.887 25.8211L204.899 25.8059L204.136 25.16ZM207.096 25.28L206.625 26.1624L206.648 26.1745L206.672 26.1855L207.096 25.28ZM209.416 26.2L209.122 27.1558L209.132 27.1588L209.416 26.2ZM214.736 25.96L214.232 25.0962L214.224 25.1009L214.216 25.1058L214.736 25.96ZM215.296 23.32L214.553 23.989L214.57 24.0085L214.589 24.0271L215.296 23.32ZM213.936 22.6L213.585 23.5363L213.608 23.5449L213.631 23.5524L213.936 22.6ZM210.976 21.8L211.191 20.8234L211.183 20.8215L211.174 20.8198L210.976 21.8ZM205.856 19.76L205.2 20.5151L205.21 20.5234L205.856 19.76ZM205.376 12.96L206.179 13.5564L206.187 13.5455L205.376 12.96ZM208.216 10.76L208.605 11.6813L208.615 11.6771L208.216 10.76ZM215.616 10.4L215.344 11.3624L215.356 11.3657L215.368 11.3687L215.616 10.4ZM218.416 11.6L217.874 12.4403L217.88 12.4442L217.886 12.448L218.416 11.6ZM219.256 15.08L220.019 15.7259L220.031 15.7121L220.042 15.6978L219.256 15.08ZM217.296 15.44L216.849 16.3344L216.9 16.3601L216.954 16.3798L217.296 15.44ZM216.256 14.88L216.746 14.0084L216.731 13.9998L216.715 13.9918L216.256 14.88ZM214.256 14L213.9 14.9345L213.92 14.942L213.94 14.9487L214.256 14ZM209.816 14.28L209.253 13.4538L209.244 13.4599L209.235 13.4663L209.816 14.28ZM209.856 17.44L209.347 18.3009L209.347 18.3009L209.856 17.44ZM213.256 18.48L213.46 17.5011L213.458 17.5006L213.256 18.48ZM217.456 19.76L217.884 18.8563L217.884 18.8563L217.456 19.76ZM219.616 21.56L218.756 22.0698L218.763 22.0814L218.77 22.0928L219.616 21.56ZM218.016 28.68L217.432 27.8682L217.425 27.8731L218.016 28.68ZM212.016 29.32C209.232 29.32 207.092 28.7701 205.516 27.7584L204.436 29.4416C206.433 30.7233 208.986 31.32 212.016 31.32V29.32ZM205.486 27.7401C204.913 27.3998 204.696 26.994 204.696 26.44H202.696C202.696 27.7526 203.332 28.7869 204.465 29.4599L205.486 27.7401ZM204.696 26.44C204.696 26.0969 204.785 25.9314 204.873 25.8357L203.399 24.4843C202.9 25.0286 202.696 25.7164 202.696 26.44H204.696ZM204.899 25.8059C205.017 25.6674 205.104 25.64 205.216 25.64V23.64C204.474 23.64 203.842 23.9593 203.373 24.5141L204.899 25.8059ZM205.216 25.64C205.41 25.64 205.853 25.7503 206.625 26.1624L207.567 24.3976C206.739 23.9564 205.929 23.64 205.216 23.64V25.64ZM206.672 26.1855C207.555 26.5997 208.373 26.9254 209.122 27.1558L209.71 25.2442C209.072 25.0479 208.343 24.7603 207.52 24.3745L206.672 26.1855ZM209.132 27.1588C209.976 27.4088 210.986 27.52 212.136 27.52V25.52C211.099 25.52 210.296 25.4179 209.7 25.2412L209.132 27.1588ZM212.136 27.52C213.345 27.52 214.421 27.3222 215.256 26.8142L214.216 25.1058C213.824 25.3445 213.167 25.52 212.136 25.52V27.52ZM215.24 26.8238C216.146 26.2953 216.696 25.4677 216.696 24.4H214.696C214.696 24.6657 214.606 24.878 214.232 25.0962L215.24 26.8238ZM216.696 24.4C216.696 23.7388 216.494 23.1041 216.003 22.6129L214.589 24.0271C214.631 24.0693 214.696 24.1546 214.696 24.4H216.696ZM216.039 22.651C215.613 22.1779 214.943 21.8725 214.241 21.6476L213.631 23.5524C214.262 23.7542 214.498 23.9288 214.553 23.989L216.039 22.651ZM214.287 21.6637C213.578 21.3977 212.534 21.1189 211.191 20.8234L210.761 22.7766C212.084 23.0677 213.014 23.3223 213.585 23.5363L214.287 21.6637ZM211.174 20.8198C208.856 20.3509 207.348 19.713 206.502 18.9966L205.21 20.5234C206.443 21.567 208.35 22.2891 210.778 22.7802L211.174 20.8198ZM206.512 19.005C205.751 18.3448 205.336 17.426 205.336 16.12H203.336C203.336 17.9074 203.934 19.4152 205.2 20.515L206.512 19.005ZM205.336 16.12C205.336 15.1593 205.615 14.3155 206.179 13.5563L204.573 12.3637C203.751 13.4711 203.336 14.734 203.336 16.12H205.336ZM206.187 13.5455C206.762 12.7485 207.556 12.1241 208.605 11.6812L207.827 9.83875C206.476 10.4093 205.376 11.2515 204.565 12.3745L206.187 13.5455ZM208.615 11.6771C209.697 11.2063 210.945 10.96 212.376 10.96V8.96C210.713 8.96 209.188 9.247 207.817 9.84293L208.615 11.6771ZM212.376 10.96C213.408 10.96 214.396 11.0949 215.344 11.3624L215.887 9.43755C214.756 9.1184 213.584 8.96 212.376 8.96V10.96ZM215.368 11.3687C216.313 11.611 217.145 11.9704 217.874 12.4403L218.958 10.7597C218.033 10.163 216.999 9.72228 215.864 9.43134L215.368 11.3687ZM217.886 12.448C218.496 12.8296 218.696 13.2394 218.696 13.72H220.696C220.696 12.4406 220.042 11.4371 218.946 10.752L217.886 12.448ZM218.696 13.72C218.696 14.0584 218.608 14.2867 218.47 14.4622L220.042 15.6978C220.491 15.1267 220.696 14.4482 220.696 13.72H218.696ZM218.493 14.4341C218.375 14.5726 218.288 14.6 218.176 14.6V16.6C218.918 16.6 219.55 16.2807 220.019 15.7259L218.493 14.4341ZM218.176 14.6C218.006 14.6 217.829 14.5696 217.638 14.5002L216.954 16.3798C217.35 16.5237 217.759 16.6 218.176 16.6V14.6ZM217.743 14.5456C217.497 14.4226 217.166 14.2448 216.746 14.0084L215.766 15.7516C216.199 15.9952 216.561 16.1907 216.849 16.3344L217.743 14.5456ZM216.715 13.9918C215.915 13.578 215.199 13.2601 214.572 13.0513L213.94 14.9487C214.433 15.1132 215.05 15.382 215.797 15.7682L216.715 13.9918ZM214.612 13.0655C213.904 12.7958 213.081 12.68 212.176 12.68V14.68C212.924 14.68 213.488 14.7775 213.9 14.9345L214.612 13.0655ZM212.176 12.68C211.064 12.68 210.059 12.9043 209.253 13.4538L210.379 15.1062C210.747 14.8557 211.314 14.68 212.176 14.68V12.68ZM209.235 13.4663C208.41 14.0556 207.976 14.9066 207.976 15.92H209.976C209.976 15.5467 210.102 15.3044 210.397 15.0937L209.235 13.4663ZM207.976 15.92C207.976 16.9499 208.464 17.7793 209.347 18.3009L210.365 16.5791C210.074 16.4074 209.976 16.2235 209.976 15.92H207.976ZM209.347 18.3009C210.094 18.7424 211.381 19.1142 213.054 19.4594L213.458 17.5006C211.771 17.1525 210.791 16.8309 210.365 16.5791L209.347 18.3009ZM213.051 19.4589C214.803 19.8248 216.116 20.2319 217.028 20.6637L217.884 18.8563C216.769 18.3281 215.283 17.8819 213.46 17.5011L213.051 19.4589ZM217.028 20.6637C217.921 21.0868 218.46 21.5706 218.756 22.0698L220.476 21.0502C219.919 20.1094 219.018 19.3932 217.884 18.8563L217.028 20.6637ZM218.77 22.0928C219.095 22.6102 219.296 23.3302 219.296 24.32H221.296C221.296 23.0698 221.043 21.9498 220.462 21.0272L218.77 22.0928ZM219.296 24.32C219.296 25.7993 218.701 26.9555 217.432 27.8682L218.6 29.4918C220.371 28.2178 221.296 26.4673 221.296 24.32H219.296ZM217.425 27.8731C216.155 28.8033 214.384 29.32 212.016 29.32V31.32C214.661 31.32 216.89 30.7434 218.607 29.4869L217.425 27.8731ZM224.71 15.84L223.975 16.5183L224.002 16.5477L224.032 16.5748L224.71 15.84ZM224.71 13.32L224.003 12.6129L224.003 12.6129L224.71 13.32ZM243.23 13.32L242.495 13.9983L242.509 14.013L242.523 14.0271L243.23 13.32ZM243.23 15.84L242.523 15.1329L242.523 15.1329L243.23 15.84ZM224.71 23.84L223.975 24.5183L224.002 24.5477L224.032 24.5748L224.71 23.84ZM224.71 21.32L224.003 20.6129L224.003 20.6129L224.71 21.32ZM243.23 21.32L242.495 21.9983L242.509 22.013L242.523 22.0271L243.23 21.32ZM243.23 23.84L242.523 23.1329L242.523 23.1329L243.23 23.84ZM225.99 15.32C225.714 15.32 225.536 15.2414 225.388 15.1052L224.032 16.5748C224.578 17.0786 225.252 17.32 225.99 17.32V15.32ZM225.445 15.1617C225.309 15.0142 225.23 14.8356 225.23 14.56H223.23C223.23 15.2977 223.471 15.9725 223.975 16.5183L225.445 15.1617ZM225.23 14.56C225.23 14.2839 225.308 14.1364 225.417 14.0271L224.003 12.6129C223.472 13.1436 223.23 13.8228 223.23 14.56H225.23ZM225.417 14.0271C225.569 13.8749 225.739 13.8 225.99 13.8V11.8C225.228 11.8 224.544 12.0718 224.003 12.6129L225.417 14.0271ZM225.99 13.8H241.99V11.8H225.99V13.8ZM241.99 13.8C242.241 13.8 242.38 13.8731 242.495 13.9983L243.965 12.6417C243.44 12.0736 242.753 11.8 241.99 11.8V13.8ZM242.523 14.0271C242.675 14.1793 242.75 14.3486 242.75 14.6H244.75C244.75 13.838 244.478 13.154 243.937 12.6129L242.523 14.0271ZM242.75 14.6C242.75 14.8085 242.687 14.9693 242.523 15.1329L243.937 16.5471C244.467 16.0174 244.75 15.3515 244.75 14.6H242.75ZM242.523 15.1329C242.414 15.2422 242.266 15.32 241.99 15.32V17.32C242.727 17.32 243.406 17.0778 243.937 16.5471L242.523 15.1329ZM241.99 15.32H225.99V17.32H241.99V15.32ZM225.99 23.32C225.714 23.32 225.536 23.2414 225.388 23.1052L224.032 24.5748C224.578 25.0786 225.252 25.32 225.99 25.32V23.32ZM225.445 23.1617C225.309 23.0142 225.23 22.8356 225.23 22.56H223.23C223.23 23.2977 223.471 23.9725 223.975 24.5183L225.445 23.1617ZM225.23 22.56C225.23 22.2839 225.308 22.1364 225.417 22.0271L224.003 20.6129C223.472 21.1436 223.23 21.8228 223.23 22.56H225.23ZM225.417 22.0271C225.569 21.8749 225.739 21.8 225.99 21.8V19.8C225.228 19.8 224.544 20.0718 224.003 20.6129L225.417 22.0271ZM225.99 21.8H241.99V19.8H225.99V21.8ZM241.99 21.8C242.241 21.8 242.38 21.8731 242.495 21.9983L243.965 20.6417C243.44 20.0736 242.753 19.8 241.99 19.8V21.8ZM242.523 22.0271C242.675 22.1793 242.75 22.3486 242.75 22.6H244.75C244.75 21.838 244.478 21.154 243.937 20.6129L242.523 22.0271ZM242.75 22.6C242.75 22.8085 242.687 22.9693 242.523 23.1329L243.937 24.5471C244.467 24.0174 244.75 23.3515 244.75 22.6H242.75ZM242.523 23.1329C242.414 23.2422 242.266 23.32 241.99 23.32V25.32C242.727 25.32 243.406 25.0778 243.937 24.5471L242.523 23.1329ZM241.99 23.32H225.99V25.32H241.99V23.32ZM252.814 2.6L253.58 1.95681L253.58 1.95681L252.814 2.6ZM251.014 12.12L250.282 11.4391L250.28 11.4417L251.014 12.12ZM248.854 12.24L248.147 12.9471L248.179 12.9792L248.214 13.0082L248.854 12.24ZM248.814 10.32L248.085 9.63606L248.08 9.64165L248.074 9.64733L248.814 10.32ZM250.374 7.44L251.35 7.65951L251.597 6.56115L250.477 6.44531L250.374 7.44ZM248.454 6.56L247.711 7.22896L247.729 7.24851L247.747 7.26711L248.454 6.56ZM248.534 2.48L247.811 1.78952L247.81 1.79034L248.534 2.48ZM260.494 2.6L261.26 1.95681L261.26 1.95681L260.494 2.6ZM258.694 12.12L257.962 11.4391L257.96 11.4417L258.694 12.12ZM256.534 12.24L255.827 12.9471L255.859 12.9792L255.894 13.0082L256.534 12.24ZM256.494 10.32L255.765 9.63606L255.76 9.64165L255.754 9.64733L256.494 10.32ZM258.054 7.44L259.03 7.65951L259.277 6.56115L258.157 6.44531L258.054 7.44ZM256.134 6.56L255.391 7.22896L255.409 7.24851L255.427 7.26711L256.134 6.56ZM256.214 2.48L255.491 1.78952L255.49 1.79034L256.214 2.48ZM250.614 2.6C251.24 2.6 251.688 2.81324 252.049 3.24319L253.58 1.95681C252.821 1.05342 251.802 0.599998 250.614 0.599998V2.6ZM252.049 3.24319C252.4 3.66169 252.654 4.3678 252.654 5.52H254.654C254.654 4.11219 254.349 2.87164 253.58 1.95681L252.049 3.24319ZM252.654 5.52C252.654 7.76547 251.876 9.72443 250.282 11.4392L251.747 12.8008C253.673 10.7289 254.654 8.28786 254.654 5.52H252.654ZM250.28 11.4417C250.127 11.6074 250.011 11.64 249.894 11.64V13.64C250.631 13.64 251.262 13.3259 251.749 12.7983L250.28 11.4417ZM249.894 11.64C249.782 11.64 249.657 11.6072 249.495 11.4718L248.214 13.0082C248.692 13.4062 249.26 13.64 249.894 13.64V11.64ZM249.561 11.5329C249.433 11.4043 249.414 11.3175 249.414 11.24H247.414C247.414 11.9092 247.689 12.4891 248.147 12.9471L249.561 11.5329ZM249.414 11.24C249.414 11.2245 249.413 11.1478 249.554 10.9927L248.074 9.64733C247.682 10.0788 247.414 10.6155 247.414 11.24H249.414ZM249.544 11.0039C250.457 10.0299 251.068 8.91234 251.35 7.65951L249.399 7.22049C249.201 8.10099 248.772 8.9034 248.085 9.63606L249.544 11.0039ZM250.477 6.44531C249.912 6.38679 249.492 6.18297 249.161 5.85289L247.747 7.26711C248.431 7.95036 249.29 8.33321 250.271 8.43469L250.477 6.44531ZM249.198 5.89103C248.896 5.55629 248.734 5.14719 248.734 4.6H246.734C246.734 5.59948 247.052 6.49705 247.711 7.22896L249.198 5.89103ZM248.734 4.6C248.734 3.9745 248.921 3.52376 249.259 3.16965L247.81 1.79034C247.081 2.55623 246.734 3.51883 246.734 4.6H248.734ZM249.258 3.17047C249.625 2.78575 250.055 2.6 250.614 2.6V0.599998C249.52 0.599998 248.564 1.00091 247.811 1.78952L249.258 3.17047ZM258.294 2.6C258.92 2.6 259.368 2.81325 259.729 3.24319L261.26 1.95681C260.501 1.05342 259.482 0.599998 258.294 0.599998V2.6ZM259.729 3.24319C260.08 3.66169 260.334 4.3678 260.334 5.52H262.334C262.334 4.11219 262.029 2.87164 261.26 1.95681L259.729 3.24319ZM260.334 5.52C260.334 7.76547 259.556 9.72443 257.962 11.4392L259.427 12.8008C261.353 10.7289 262.334 8.28786 262.334 5.52H260.334ZM257.96 11.4417C257.807 11.6074 257.691 11.64 257.574 11.64V13.64C258.311 13.64 258.942 13.3259 259.429 12.7983L257.96 11.4417ZM257.574 11.64C257.462 11.64 257.337 11.6072 257.175 11.4718L255.894 13.0082C256.372 13.4062 256.94 13.64 257.574 13.64V11.64ZM257.241 11.5329C257.113 11.4043 257.094 11.3175 257.094 11.24H255.094C255.094 11.9092 255.369 12.4891 255.827 12.9471L257.241 11.5329ZM257.094 11.24C257.094 11.2245 257.093 11.1478 257.234 10.9927L255.754 9.64733C255.362 10.0788 255.094 10.6155 255.094 11.24H257.094ZM257.224 11.0039C258.137 10.0299 258.748 8.91234 259.03 7.65951L257.079 7.22049C256.881 8.10099 256.452 8.9034 255.765 9.63606L257.224 11.0039ZM258.157 6.44531C257.592 6.38679 257.172 6.18297 256.841 5.85289L255.427 7.26711C256.111 7.95036 256.97 8.33321 257.951 8.43469L258.157 6.44531ZM256.878 5.89103C256.576 5.55629 256.414 5.14719 256.414 4.6H254.414C254.414 5.59948 254.732 6.49705 255.391 7.22896L256.878 5.89103ZM256.414 4.6C256.414 3.9745 256.601 3.52376 256.939 3.16965L255.49 1.79034C254.761 2.55623 254.414 3.51883 254.414 4.6H256.414ZM256.938 3.17047C257.305 2.78575 257.735 2.6 258.294 2.6V0.599998C257.2 0.599998 256.244 1.00091 255.491 1.78952L256.938 3.17047ZM283.312 15.92L282.918 16.8391L282.936 16.8472L282.956 16.8545L283.312 15.92ZM284.632 16.96L283.8 17.5147L283.8 17.5147L284.632 16.96ZM284.632 20.2L285.449 20.7767L285.456 20.7658L285.464 20.7547L284.632 20.2ZM283.312 21.24L283.703 22.16L283.705 22.1591L283.312 21.24ZM268.472 27.56L268.08 26.64L268.069 26.6447L268.058 26.6496L268.472 27.56ZM266.112 27.28L265.404 27.9871L265.432 28.0143L265.461 28.0393L266.112 27.28ZM266.592 24.48L266.205 23.5578L266.197 23.5612L266.189 23.5647L266.592 24.48ZM280.712 18.56L281.098 19.4822L283.298 18.56L281.098 17.6378L280.712 18.56ZM266.592 12.64L266.189 13.5553L266.197 13.5588L266.205 13.5622L266.592 12.64ZM266.112 9.88L266.79 10.6148L266.792 10.6128L266.112 9.88ZM268.472 9.56L268.865 8.64085L268.848 8.63342L268.831 8.62665L268.472 9.56ZM282.956 16.8545C283.329 16.9969 283.6 17.2147 283.8 17.5147L285.464 16.4053C285.024 15.7453 284.414 15.2698 283.668 14.9855L282.956 16.8545ZM283.8 17.5147C284.008 17.8275 284.112 18.1672 284.112 18.56H286.112C286.112 17.7795 285.895 17.0525 285.464 16.4053L283.8 17.5147ZM284.112 18.56C284.112 18.989 284.003 19.3401 283.8 19.6453L285.464 20.7547C285.9 20.0999 286.112 19.3576 286.112 18.56H284.112ZM283.815 19.6233C283.612 19.911 283.325 20.1463 282.918 20.3209L283.705 22.1591C284.418 21.8537 285.012 21.3957 285.449 20.7767L283.815 19.6233ZM282.92 20.32L268.08 26.64L268.863 28.48L283.703 22.16L282.92 20.32ZM268.058 26.6496C267.913 26.7152 267.725 26.76 267.472 26.76V28.76C267.965 28.76 268.443 28.6714 268.885 28.4704L268.058 26.6496ZM267.472 26.76C267.155 26.76 266.939 26.6718 266.762 26.5207L265.461 28.0393C266.031 28.5282 266.721 28.76 267.472 28.76V26.76ZM266.819 26.5729C266.677 26.4312 266.592 26.2538 266.592 25.96H264.592C264.592 26.7329 264.853 27.4355 265.404 27.9871L266.819 26.5729ZM266.592 25.96C266.592 25.7792 266.633 25.6853 266.67 25.6299C266.71 25.5711 266.795 25.483 266.994 25.3953L266.189 23.5647C265.722 23.7703 265.307 24.0755 265.013 24.5101C264.717 24.948 264.592 25.4475 264.592 25.96H266.592ZM266.978 25.4022L281.098 19.4822L280.325 17.6378L266.205 23.5578L266.978 25.4022ZM281.098 17.6378L266.978 11.7178L266.205 13.5622L280.325 19.4822L281.098 17.6378ZM266.994 11.7247C266.795 11.637 266.71 11.5489 266.67 11.4901C266.633 11.4347 266.592 11.3408 266.592 11.16H264.592C264.592 11.6725 264.717 12.172 265.013 12.6099C265.307 13.0445 265.722 13.3497 266.189 13.5553L266.994 11.7247ZM266.592 11.16C266.592 10.8656 266.676 10.7198 266.79 10.6148L265.433 9.1452C264.854 9.68015 264.592 10.3878 264.592 11.16H266.592ZM266.792 10.6128C266.971 10.4465 267.178 10.36 267.472 10.36V8.36C266.699 8.36 265.999 8.62013 265.431 9.14721L266.792 10.6128ZM267.472 10.36C267.651 10.36 267.862 10.3971 268.113 10.4933L268.831 8.62665C268.387 8.45623 267.932 8.36 267.472 8.36V10.36ZM268.078 10.4791L282.918 16.8391L283.705 15.0009L268.865 8.64085L268.078 10.4791Z" fill="white"/>
</g>
<defs>
<filter id="filter0_d" x="0.240005" y="0.599976" width="289.872" height="38.72" filterUnits="userSpaceOnUse" color-interpolation-filters="sRGB">
<feFlood flood-opacity="0" result="BackgroundImageFix"/>
<feColorMatrix in="SourceAlpha" type="matrix" values="0 0 0 0 0 0 0 0 0 0 0 0 0 0 0 0 0 0 127 0"/>
<feOffset dy="4"/>
<feGaussianBlur stdDeviation="2"/>
<feColorMatrix type="matrix" values="0 0 0 0 0 0 0 0 0 0 0 0 0 0 0 0 0 0 0.25 0"/>
<feBlend mode="normal" in2="BackgroundImageFix" result="effect1_dropShadow"/>
<feBlend mode="normal" in="SourceGraphic" in2="effect1_dropShadow" result="shape"/>
</filter>
</defs>
</svg>
