<svg width="241" height="120" viewBox="0 0 241 120" fill="none" xmlns="http://www.w3.org/2000/svg">
<g clip-path="url(#clip0)">
<path d="M32.1797 67.4102L65.8027 80.999V91.5264L21.8672 71.1699V63.3281L65.8027 43.0254V53.5527L32.1797 67.4102ZM83.4736 108.714H74.9336L107.59 23.7969H116.076L83.4736 108.714ZM216.569 67.0879L181.066 53.1768V42.9717L226.936 63.2744V71.1162L181.066 91.4727V81.1602L216.569 67.0879Z" fill="url(#paint0_linear)"/>
<path d="M133.979 6.75749L139.617 0V3.05177L141.319 5.88556L142.915 7.52044L148.872 11.9891L154.191 15.4768L158.553 19.1826L163.34 25.1771L165.894 32.1526V35.8583L164.617 40.109L163.34 43.1608L153.234 55.8038L148.872 58.7466L144.723 61.1444V65.9401L154.191 67.3569L158.553 69.7548L160.362 71.6076L170.149 83.5967L171 86.4305V89.5913L170.149 93.188L167.489 98.2016L160.362 90.4632L162.596 86.4305L163.34 83.5967L163.766 80.327L163.34 76.5123L154.191 74.1144L147.17 73.3515L144.298 74.1144L144.723 100.49L137.17 92.3161V74.1144L132.915 75.3133L129.617 76.5123L124.83 78.9101L119.83 83.5967L118.872 86.4305L117.702 89.5913L118.872 94.6049L121.638 100.49L128.766 108.556L135.362 114.332L139.085 118.474V120L122.809 103.433L118.872 98.2016L114.617 92.3161L111.851 87.5204L111 83.5967V79.673L112.596 76.5123L113.872 74.1144L119.83 69.7548L124.83 67.3569L131.319 65.9401L138.021 65.1771L137.17 62.0163L132.915 62.7793L129.617 62.0163L122.809 60.3815L118.872 58.7466L115.362 56.1308L113.872 53.515L111.851 49.2643V46.4305L112.596 43.1608L113.872 40.109L115.362 36.8392L124.83 25.6131L120.574 32.1526L119.83 34.0054L118.872 36.8392V40.109L119.83 43.9237L122.809 47.9564L125.468 50.1362L131.319 52.5341L137.17 54.1689V36.8392L135.362 28.8828L133.979 25.1771L141.319 32.1526V34.0054L142.915 39.1281L144.298 43.9237L144.723 50.1362V54.1689L148.872 53.515L151.851 52.5341L155.362 50.8992L157.489 49.2643L158.553 45.5586V41.1989L157.489 36.8392L156.319 34.0054L152.596 28.8828L148.872 25.1771L144.298 21.7984L136.426 16.4578L133.979 14.6049L132.915 11.1172V8.50136L133.979 6.75749Z" fill="white"/>
</g>
<defs>
<linearGradient id="paint0_linear" x1="129.5" y1="0" x2="129.5" y2="128" gradientUnits="userSpaceOnUse">
<stop offset="0.421875" stop-color="white"/>
<stop offset="0.765625" stop-color="white" stop-opacity="0"/>
</linearGradient>
<clipPath id="clip0">
<rect width="241" height="120" fill="white"/>
</clipPath>
</defs>
</svg>
