<svg width="112" height="43" viewBox="0 0 112 43" fill="none" xmlns="http://www.w3.org/2000/svg">
<g filter="url(#filter0_d)">
<path d="M17.0195 32.378C12.9595 32.378 9.87947 31.328 7.77947 29.228C5.67947 27.128 4.62947 24.062 4.62947 20.03V4.868C4.62947 4.056 4.86747 3.412 5.34347 2.936C5.81947 2.432 6.46347 2.18 7.27547 2.18C8.08747 2.18 8.73147 2.432 9.20747 2.936C9.68347 3.412 9.92147 4.056 9.92147 4.868V20.324C9.92147 22.872 10.5235 24.804 11.7275 26.12C12.9315 27.408 14.6955 28.052 17.0195 28.052C19.3155 28.052 21.0655 27.394 22.2695 26.078C23.4735 24.762 24.0755 22.844 24.0755 20.324V4.868C24.0755 4.056 24.3135 3.412 24.7895 2.936C25.2655 2.432 25.9095 2.18 26.7215 2.18C27.5335 2.18 28.1775 2.432 28.6535 2.936C29.1295 3.412 29.3675 4.056 29.3675 4.868V20.03C29.3675 24.034 28.3175 27.1 26.2175 29.228C24.1175 31.328 21.0515 32.378 17.0195 32.378Z" fill="url(#paint0_linear)"/>
<path d="M52.9462 28.136C53.4502 28.64 53.7022 29.214 53.7022 29.858C53.7022 30.474 53.4642 31.034 52.9882 31.538C52.5122 32.014 51.9522 32.252 51.3082 32.252C50.6082 32.252 50.0062 31.958 49.5022 31.37L43.5802 24.818L37.6582 31.37C37.1262 31.93 36.5242 32.21 35.8522 32.21C35.2362 32.21 34.6902 31.972 34.2142 31.496C33.7382 31.02 33.5002 30.474 33.5002 29.858C33.5002 29.214 33.7522 28.64 34.2562 28.136L40.3882 21.458L34.5922 15.158C34.0882 14.654 33.8362 14.08 33.8362 13.436C33.8362 12.792 34.0742 12.246 34.5502 11.798C35.0262 11.322 35.5722 11.084 36.1882 11.084C36.8602 11.084 37.4622 11.364 37.9942 11.924L43.5802 18.056L49.1662 11.924C49.6982 11.364 50.3002 11.084 50.9722 11.084C51.6162 11.084 52.1622 11.322 52.6102 11.798C53.0862 12.246 53.3242 12.792 53.3242 13.436C53.3242 14.08 53.0722 14.654 52.5682 15.158L46.7722 21.458L52.9462 28.136ZM104.064 32.252C103.308 32.252 102.678 32.042 102.174 31.622C101.698 31.174 101.46 30.544 101.46 29.732V13.52C101.46 12.708 101.698 12.092 102.174 11.672C102.678 11.252 103.308 11.042 104.064 11.042C104.82 11.042 105.45 11.252 105.954 11.672C106.458 12.092 106.71 12.708 106.71 13.52V29.732C106.71 30.544 106.458 31.174 105.954 31.622C105.45 32.042 104.82 32.252 104.064 32.252ZM104.064 7.304C103.112 7.304 102.356 7.052 101.796 6.548C101.236 6.016 100.956 5.33 100.956 4.49C100.956 3.65 101.236 2.978 101.796 2.474C102.356 1.97 103.112 1.718 104.064 1.718C104.988 1.718 105.73 1.97 106.29 2.474C106.878 2.978 107.172 3.65 107.172 4.49C107.172 5.33 106.892 6.016 106.332 6.548C105.772 7.052 105.016 7.304 104.064 7.304Z" fill="white"/>
<path d="M58.4577 33.428C58.2897 33.96 58.0237 34.352 57.6597 34.604C57.2957 34.856 56.8897 34.982 56.4417 34.982C55.8817 34.982 55.3777 34.786 54.9297 34.394C54.5097 34.03 54.2997 33.554 54.2997 32.966C54.2997 32.714 54.3417 32.462 54.4257 32.21L64.1697 1.676C64.3377 1.144 64.6037 0.751998 64.9677 0.499997C65.3317 0.247997 65.7377 0.121997 66.1857 0.121997C66.7457 0.121997 67.2357 0.317997 67.6557 0.709997C68.1037 1.074 68.3277 1.55 68.3277 2.138C68.3277 2.39 68.2857 2.642 68.2017 2.894L58.4577 33.428Z" fill="#FAF3F3"/>
<path d="M83.3417 32.378C79.2817 32.378 76.2017 31.328 74.1017 29.228C72.0017 27.128 70.9517 24.062 70.9517 20.03V4.868C70.9517 4.056 71.1897 3.412 71.6657 2.936C72.1417 2.432 72.7857 2.18 73.5977 2.18C74.4097 2.18 75.0537 2.432 75.5297 2.936C76.0057 3.412 76.2437 4.056 76.2437 4.868V20.324C76.2437 22.872 76.8457 24.804 78.0497 26.12C79.2537 27.408 81.0177 28.052 83.3417 28.052C85.6377 28.052 87.3877 27.394 88.5917 26.078C89.7957 24.762 90.3977 22.844 90.3977 20.324V4.868C90.3977 4.056 90.6357 3.412 91.1117 2.936C91.5877 2.432 92.2317 2.18 93.0437 2.18C93.8557 2.18 94.4997 2.432 94.9757 2.936C95.4517 3.412 95.6897 4.056 95.6897 4.868V20.03C95.6897 24.034 94.6397 27.1 92.5397 29.228C90.4397 31.328 87.3737 32.378 83.3417 32.378Z" fill="url(#paint1_linear)"/>
</g>
<defs>
<filter id="filter0_d" x="0.629456" y="0.122009" width="110.543" height="42.86" filterUnits="userSpaceOnUse" color-interpolation-filters="sRGB">
<feFlood flood-opacity="0" result="BackgroundImageFix"/>
<feColorMatrix in="SourceAlpha" type="matrix" values="0 0 0 0 0 0 0 0 0 0 0 0 0 0 0 0 0 0 127 0"/>
<feOffset dy="4"/>
<feGaussianBlur stdDeviation="2"/>
<feColorMatrix type="matrix" values="0 0 0 0 1 0 0 0 0 1 0 0 0 0 1 0 0 0 0.47 0"/>
<feBlend mode="normal" in2="BackgroundImageFix" result="effect1_dropShadow"/>
<feBlend mode="normal" in="SourceGraphic" in2="effect1_dropShadow" result="shape"/>
</filter>
<linearGradient id="paint0_linear" x1="55.5" y1="-6" x2="55.5" y2="43" gradientUnits="userSpaceOnUse">
<stop stop-color="#EEE4E4" stop-opacity="0"/>
<stop offset="0.421875" stop-color="#F2EBEB"/>
<stop offset="0.421875" stop-color="#F2EBEB"/>
</linearGradient>
<linearGradient id="paint1_linear" x1="55.5" y1="-6" x2="55.5" y2="43" gradientUnits="userSpaceOnUse">
<stop stop-color="white" stop-opacity="0"/>
<stop offset="0.864583" stop-color="#F7EFEF"/>
</linearGradient>
</defs>
</svg>
